<svg width="674" height="606" fill="none" xmlns="http://www.w3.org/2000/svg"><path fill-rule="evenodd" clip-rule="evenodd" d="M580.13 580.694l-1.355.798-1.364.78-1.372.761-1.38.742-1.388.724-1.395.706-1.401.687-1.409.67-1.414.653-1.419.635-1.425.619-1.43.603-1.435.587-1.439.571-1.443.557-1.446.542-1.45.528-1.454.514-1.456.501-1.46.488-1.462.476-1.465.465-1.468.453-1.47.442-1.473.432-1.475.422-1.478.412-1.481.403-1.483.395-1.486.385-1.49.378-1.492.369-1.496.362-1.5.354-1.503.346-1.507.339-1.511.332-1.516.324-1.52.317-1.526.309-1.53.302-1.536.293-1.542.286-1.547.277-1.554.268-1.56.26-1.567.249-1.573.24-1.58.229-1.587.217-1.594.207-1.602.193-1.608.181-1.616.167-1.622.152-1.63.137-1.637.121-1.643.104-1.65.086-1.657.067-1.663.048-1.668.028-1.674.006-1.678-.016-1.683-.039-1.687-.064-1.691-.088-1.693-.114-1.695-.141-1.697-.168-1.697-.197-1.698-.226-1.696-.256-1.695-.287-1.691-.318-1.688-.351-1.684-.383-1.678-.417-1.671-.45-1.663-.485-1.655-.52-1.645-.555-1.633-.59-1.622-.626-1.609-.662-1.594-.698-1.579-.734-1.562-.77-1.545-.806-1.526-.842-1.507-.877-1.485-.913-1.464-.948-1.441-.982-1.418-1.017-1.393-1.05-1.367-1.084-1.34-1.116-1.313-1.148-1.285-1.18-1.256-1.21-1.227-1.24-1.196-1.268-1.165-1.297-1.133-1.324-1.1-1.351-1.068-1.376-1.034-1.401-1-1.424-.966-1.447-.931-1.469-.895-1.49-.86-1.509-.823-1.529-.787-1.546-.75-1.563-.712-1.58-.675-1.594-.637-1.608-.598-1.622-.56-1.633-.52-1.645-.482-1.655-.442-1.665-.402-1.672-.363-1.68-.323-1.686-.283-1.691-.244-1.695-.204-1.698-.165-1.699-.127-1.701-.087-1.7-.049-1.698-.012-1.696.026-1.693.062-1.687.099-1.683.134-1.675.168-1.668.203-1.66.236-1.649.267-1.64.3-1.628.329-1.616.359-1.603.387-1.59.414-1.576.441-1.56.466-1.545.489-1.529.512-1.512.534-1.495.554-1.478.574-1.459.591-1.442.608-1.423.624-1.405.638-1.386.651-1.367.663-1.348.674-1.329.683-1.31.691-1.292.698-1.273.704-1.254.708-1.237.712-1.218.715-1.202.716-1.184.718-1.167.716-1.151.716-1.136.714-1.12.711-1.106.708-1.091.705-1.078.7-1.065.695-1.053.69-1.041.685-1.03.679-1.019.674-1.01.667-1 .662-.991.655-.984.65-.975.644-.969.639-.962.633-.955.628-.95.623-.945.619-.94.615-.936.611-.931.608-.927.605-.924.603-.921.601-.918.6-.915.599-.912.598-.91.599-.907.6-.904.602-.902.605-.899.607-.895.612-.893.616-.889.622-.885.629-.881.635-.876.643-.871.652-.864.661-.859.671-.851.681-.843.692-.835.704-.825.716-.816.729-.805.741-.793.755-.781.769-.768.782-.753.796-.74.81-.724.825-.707.838-.691.853-.673.866-.656.88-.636.894-.617.906-.598.919-.577.931-.558.942-.536.953-.517.964-.495.973-.476.981-.455.99-.436.996-.417 1.004-.398 1.008-.38 1.014-.363 1.017-.346 1.021-.331 1.024-.316 1.025-.303 1.027-.291 1.028-.279 1.027-.27 1.028-.26 1.027-.253 1.026-.247 1.025-.242 1.023-.238 1.022-.235 1.02-.235 1.019-.234 1.017-.236 1.016-.238 1.015-.241 1.015-.246 1.014-.252 1.014-.258 1.014-.264 1.016-.273 1.018-.281 1.02-.289 1.023-.299 1.027-.308 1.032-.317 1.036-.327 1.043-.337 1.05-.345 1.057-.353 1.065-.362 1.074-.37 1.084-.376 1.094-.382 1.106-.388 1.116-.393 1.129-.396 1.141-.398 1.155-.4 1.168-.401 1.181-.399 1.196-.398 1.209-.395 1.225-.389 1.238-.384 1.254-.377 1.268-.368 1.282-.358 1.297-.347 1.311-.333 1.324-.32 1.338-.304 1.351-.287 1.363-.268 1.376-.249 1.387-.228 1.397-.206 1.408-.182 1.417-.157 1.425-.132 1.433-.105 1.44-.076 1.445-.049 1.451-.018 1.454.012 1.457.044 1.459.074 1.461.108 1.46.139 1.46.172 1.458.206 1.456.238 1.452.271 1.449.305 1.443.337 1.438.37 1.431.402 1.424.435 1.417.466 1.409.497 1.399.529 1.391.559 1.381.588 1.37.619 1.36.647 1.349.676 1.338.703 1.326.731 1.314.757 1.302.784 1.289.809 1.277.834 1.264.858 1.251.883 1.237.906 1.223.93 1.21.952 1.196.974 1.182.995 1.167 1.018 1.152 1.038 1.137 1.059 1.122 1.079 1.106 1.1 1.09 1.119 1.073 1.139 1.057 1.158 1.039 1.177 1.022 1.196 1.003 1.214.985 1.233.965 1.251.947 1.268.926 1.286.906 1.303.885 1.32.865 1.336.842 1.352.821 1.367.798 1.383.776 1.398.753 1.413.729 1.426.706 1.441.682 1.453.658 1.466.634 1.479.609 1.49.584 1.502.559 1.512.534 1.523.509 1.533.483 1.543.458 1.551.433 1.559.407 1.568.382 1.575.357 1.582.331 1.588.305 1.595.281 1.6.255 1.605.231 1.609.205 1.614.18 1.617.156 1.621.13 1.624.106 1.626.081 1.628.056 1.629.031 1.631.007 1.632-.019 1.632-.043 1.632-.068 1.631-.093 1.631-.117 1.629-.143 1.628-.168 1.626-.192 1.623-.218 1.62-.243 1.616-.267 1.613-.293 1.609-.318 1.603-.343 1.599-.368 1.593-.393 1.587-.419 1.58-.443 1.573-.468 1.566-.494 1.557-.518 1.55-.543 1.54-.568 1.531-.593 1.521-.617 1.511-.641 1.5-.665 1.489-.689 1.477-.712 1.466-.735 1.453-.758 1.441-.781 1.427-.802 1.415-.824 1.401-.844 1.387-.866 1.373-.885 1.359-.906 1.344-.925 1.33-.944 1.315-.962 1.299-.981 1.285-.999 1.268-1.017 1.253-1.034 1.236-1.052 1.221-1.068 1.203-1.084 1.187-1.101 1.17-1.116 1.153-1.133 1.135-1.147 1.118-1.162 1.1-1.177 1.082-1.191 1.064-1.205 1.046-1.219 1.027-1.232 1.009-1.245.989-1.258.971-1.27.952-1.282.933-1.294.914-1.305.894-1.315.876-1.326.856-1.336.837-1.346.818z" fill="url(#paint0_linear_377_2747)"/><path fill-rule="evenodd" clip-rule="evenodd" d="M43.188 112.573l.874-1.308.89-1.295.904-1.281.92-1.268.936-1.255.95-1.242.964-1.228.977-1.215.99-1.202 1.003-1.189 1.014-1.177 1.026-1.164 1.037-1.151 1.048-1.14 1.058-1.128 1.067-1.116 1.077-1.106 1.086-1.094 1.094-1.084 1.102-1.074 1.11-1.064 1.118-1.055 1.125-1.045 1.132-1.037 1.139-1.029 1.146-1.02 1.151-1.014 1.159-1.006 1.165-1 1.17-.993 1.178-.987 1.184-.98 1.19-.976 1.197-.97 1.203-.965 1.21-.96L83 71.8l1.224-.95 1.232-.946 1.24-.941 1.247-.937 1.256-.932 1.264-.926 1.274-.922 1.282-.917 1.293-.911 1.302-.905 1.313-.9 1.324-.892 1.335-.886 1.346-.878 1.358-.87 1.37-.86 1.383-.853 1.395-.842 1.409-.831 1.422-.82 1.435-.807 1.449-.795 1.462-.78 1.477-.765 1.491-.75 1.504-.732 1.519-.715 1.533-.696 1.547-.676 1.561-.654 1.575-.633 1.588-.61 1.601-.585 1.615-.56 1.627-.534 1.639-.506 1.651-.478 1.662-.448 1.673-.417 1.682-.387 1.693-.353 1.701-.32 1.708-.286 1.717-.25 1.722-.215 1.728-.178 1.733-.14 1.736-.103 1.74-.064 1.741-.025 1.742.015 1.741.055 1.741.096 1.738.135 1.735.177 1.73.218 1.725.259 1.718.3 1.711.341 1.702.383 1.693.422 1.682.464 1.67.504 1.657.545 1.643.584 1.628.623 1.613.662 1.596.7 1.578.739 1.56.776 1.54.812 1.52.848 1.499.884 1.476.92 1.454.952 1.43.986 1.406 1.02 1.38 1.05 1.355 1.083 1.328 1.112 1.3 1.143 1.273 1.172 1.243 1.2 1.214 1.23 1.184 1.255 1.153 1.281 1.121 1.307 1.089 1.332 1.057 1.355 1.024 1.379.99 1.4.956 1.42.922 1.44.887 1.46.852 1.477.818 1.493.782 1.508.748 1.523.712 1.535.677 1.548.642 1.558.608 1.567.573 1.576.538 1.582.505 1.588.471 1.593.438 1.597.406 1.599.373 1.6.342 1.6.312 1.599.281 1.596.252 1.594.223 1.59.196 1.584.169 1.579.143 1.571.118 1.564.094 1.556.07 1.546.049 1.536.027 1.525.008 1.514-.012 1.502-.029 1.49-.045 1.477-.061 1.463-.076 1.45-.089 1.436-.101 1.421-.112 1.407-.121 1.393-.131 1.377-.139 1.363-.145 1.349-.151 1.333-.156 1.319-.161 1.305-.163 1.291-.166 1.277-.168 1.263-.169 1.25-.169 1.238-.169 1.225-.169 1.213-.168 1.202-.167 1.191-.165 1.18-.163 1.17-.161 1.161-.159 1.152-.158 1.144-.154 1.136-.153 1.128-.151 1.122-.149 1.115-.147 1.11-.146 1.104-.145 1.1-.143 1.095-.143 1.091-.143 1.088-.142 1.084-.143 1.082-.144 1.079-.146 1.077-.147 1.076-.151 1.073-.153 1.072-.158 1.071-.163 1.07-.169 1.068-.176 1.068-.183 1.066-.192 1.065-.201 1.064-.211 1.061-.222 1.06-.234 1.058-.248 1.056-.26 1.052-.276 1.05-.29 1.045-.307 1.042-.323 1.036-.341 1.032-.358 1.025-.377 1.019-.396 1.011-.415 1.004-.436.996-.455.986-.475.977-.495.967-.516.955-.537.944-.556.932-.577.919-.596.906-.616.893-.634.879-.653.865-.669.851-.686.837-.702.822-.717.808-.731.794-.743.781-.755.767-.766.754-.776.741-.784.73-.792.718-.799.708-.804.698-.809.689-.812.681-.815.674-.817.668-.818.663-.818.659-.818.656-.817.654-.816.654-.814.654-.811.656-.81.658-.806.662-.805.667-.801.673-.799.679-.796.687-.795.695-.793.704-.792.713-.791.724-.791.734-.792.744-.793.756-.795.767-.798.778-.803.788-.807.8-.813.809-.819.82-.827.829-.835.839-.845.847-.855.855-.865.861-.878.868-.891.874-.904.877-.918.881-.933.883-.949.884-.965.883-.983.883-.999.879-1.017.876-1.036.869-1.054.864-1.073.854-1.092.846-1.112.834-1.13.821-1.15.808-1.17.792-1.189.776-1.207.757-1.227.738-1.245.717-1.263.694-1.281.671-1.299.647-1.315.621-1.331.594-1.347.566-1.362.538-1.376.508-1.39.479-1.402.449-1.415.418-1.426.386-1.437.355-1.446.323-1.456.291-1.464.26-1.472.227-1.478.196-1.485.164-1.491.132-1.495.1-1.499.069-1.504.039-1.506.008-1.508-.023-1.511-.052-1.512-.083-1.512-.111-1.514-.14-1.513-.169-1.512-.196-1.511-.225-1.51-.252-1.508-.279-1.506-.305-1.504-.332-1.5-.358-1.497-.384-1.493-.409-1.489-.435-1.484-.459-1.48-.485-1.474-.51-1.468-.535-1.462-.559-1.454-.584-1.448-.609-1.44-.634-1.431-.658-1.423-.682-1.413-.707-1.404-.732-1.393-.755-1.382-.78-1.37-.804-1.36-.828-1.346-.852-1.334-.876-1.32-.899-1.306-.922-1.292-.945-1.277-.968-1.262-.99-1.245-1.013-1.23-1.035-1.213-1.057-1.196-1.078-1.179-1.098-1.16-1.12-1.144-1.14-1.124-1.159-1.106-1.179-1.086-1.199-1.068-1.216-1.048-1.235-1.028-1.253-1.009-1.27-.988-1.287-.968-1.303-.948-1.32-.928-1.334-.906-1.35-.887-1.364-.865-1.379-.844-1.392-.823-1.405-.802-1.419-.78-1.431-.759-1.444-.737-1.455-.715-1.467-.692-1.478-.67-1.488-.648-1.5-.625-1.509-.602-1.518-.579-1.528-.555-1.537-.532-1.546-.508-1.554-.484-1.561-.46-1.569-.435-1.576-.41-1.582-.386-1.589-.36-1.595-.336-1.6-.31-1.605-.284-1.609-.259-1.614-.232-1.617-.207-1.621-.18-1.623-.153-1.626-.128-1.627-.1-1.629-.075-1.629-.048-1.63-.022-1.63.005-1.63.031-1.628.057-1.627.082-1.625.108-1.622.133-1.62.159-1.616.182-1.613.207-1.608.232-1.605.255-1.599.279-1.594.302-1.589.326-1.583.348-1.576.372-1.57.394-1.563.417-1.556.439-1.548.46-1.54.484-1.532.504-1.523.527-1.515.547-1.505.57-1.496.589-1.485.61-1.476.632-1.465.651-1.455.672-1.444.691-1.432.711-1.421.73-1.409.75-1.397.768-1.385.786-1.372.805-1.36.822-1.347.84-1.334.856-1.321z" fill="url(#paint1_linear_377_2747)"/><mask id="a" style="mask-type:alpha" maskUnits="userSpaceOnUse" x="203" y="134" width="466" height="465"><ellipse cx="435.767" cy="366.752" rx="232.262" ry="232.216" fill="#D9D9D9"/></mask><g mask="url(#a)" fill="#FFE7C1"><ellipse cx="209.769" cy="151.786" rx="6.264" ry="6.263"/><ellipse cx="209.769" cy="191.87" rx="6.264" ry="6.263"/><ellipse cx="209.769" cy="231.953" rx="6.264" ry="6.263"/><ellipse cx="209.769" cy="272.036" rx="6.264" ry="6.263"/><ellipse cx="209.769" cy="312.12" rx="6.264" ry="6.263"/><ellipse cx="209.769" cy="352.203" rx="6.264" ry="6.263"/><ellipse cx="209.769" cy="392.287" rx="6.264" ry="6.263"/><ellipse cx="209.769" cy="432.37" rx="6.264" ry="6.263"/><ellipse cx="209.769" cy="472.454" rx="6.264" ry="6.263"/><ellipse cx="209.769" cy="512.538" rx="6.264" ry="6.263"/><ellipse cx="209.769" cy="552.621" rx="6.264" ry="6.263"/><ellipse cx="209.769" cy="592.705" rx="6.264" ry="6.263"/><ellipse cx="249.861" cy="151.786" rx="6.264" ry="6.263"/><ellipse cx="249.861" cy="191.87" rx="6.264" ry="6.263"/><ellipse cx="249.861" cy="231.953" rx="6.264" ry="6.263"/><ellipse cx="249.861" cy="272.036" rx="6.264" ry="6.263"/><ellipse cx="249.861" cy="312.12" rx="6.264" ry="6.263"/><ellipse cx="249.861" cy="352.203" rx="6.264" ry="6.263"/><ellipse cx="249.861" cy="392.287" rx="6.264" ry="6.263"/><ellipse cx="249.861" cy="432.37" rx="6.264" ry="6.263"/><ellipse cx="249.861" cy="472.454" rx="6.264" ry="6.263"/><ellipse cx="249.861" cy="512.538" rx="6.264" ry="6.263"/><ellipse cx="249.861" cy="552.621" rx="6.264" ry="6.263"/><ellipse cx="249.861" cy="592.705" rx="6.264" ry="6.263"/><ellipse cx="289.952" cy="151.786" rx="6.264" ry="6.263"/><ellipse cx="289.952" cy="191.87" rx="6.264" ry="6.263"/><ellipse cx="289.952" cy="231.953" rx="6.264" ry="6.263"/><ellipse cx="289.952" cy="272.036" rx="6.264" ry="6.263"/><ellipse cx="289.952" cy="312.12" rx="6.264" ry="6.263"/><ellipse cx="289.952" cy="352.203" rx="6.264" ry="6.263"/><ellipse cx="289.952" cy="392.287" rx="6.264" ry="6.263"/><ellipse cx="289.952" cy="432.37" rx="6.264" ry="6.263"/><ellipse cx="289.952" cy="472.454" rx="6.264" ry="6.263"/><ellipse cx="289.952" cy="512.538" rx="6.264" ry="6.263"/><ellipse cx="289.952" cy="552.621" rx="6.264" ry="6.263"/><ellipse cx="289.952" cy="592.705" rx="6.264" ry="6.263"/><ellipse cx="330.044" cy="151.786" rx="6.264" ry="6.263"/><ellipse cx="330.044" cy="191.87" rx="6.264" ry="6.263"/><ellipse cx="330.044" cy="231.953" rx="6.264" ry="6.263"/><ellipse cx="330.044" cy="272.036" rx="6.264" ry="6.263"/><ellipse cx="330.044" cy="312.12" rx="6.264" ry="6.263"/><ellipse cx="330.044" cy="352.203" rx="6.264" ry="6.263"/><ellipse cx="330.044" cy="392.287" rx="6.264" ry="6.263"/><ellipse cx="330.044" cy="432.37" rx="6.264" ry="6.263"/><ellipse cx="330.044" cy="472.454" rx="6.264" ry="6.263"/><ellipse cx="330.044" cy="512.538" rx="6.264" ry="6.263"/><ellipse cx="330.044" cy="552.621" rx="6.264" ry="6.263"/><ellipse cx="330.044" cy="592.705" rx="6.264" ry="6.263"/><ellipse cx="370.135" cy="151.786" rx="6.264" ry="6.263"/><ellipse cx="370.135" cy="191.87" rx="6.264" ry="6.263"/><ellipse cx="370.135" cy="231.953" rx="6.264" ry="6.263"/><ellipse cx="370.135" cy="272.036" rx="6.264" ry="6.263"/><ellipse cx="370.135" cy="312.12" rx="6.264" ry="6.263"/><ellipse cx="370.135" cy="352.203" rx="6.264" ry="6.263"/><ellipse cx="370.135" cy="392.287" rx="6.264" ry="6.263"/><ellipse cx="370.135" cy="432.37" rx="6.264" ry="6.263"/><ellipse cx="370.135" cy="472.454" rx="6.264" ry="6.263"/><ellipse cx="370.135" cy="512.538" rx="6.264" ry="6.263"/><ellipse cx="370.135" cy="552.621" rx="6.264" ry="6.263"/><ellipse cx="370.135" cy="592.705" rx="6.264" ry="6.263"/><ellipse cx="410.227" cy="151.786" rx="6.264" ry="6.263"/><ellipse cx="410.227" cy="191.87" rx="6.264" ry="6.263"/><ellipse cx="410.227" cy="231.953" rx="6.264" ry="6.263"/><ellipse cx="410.227" cy="272.036" rx="6.264" ry="6.263"/><ellipse cx="410.227" cy="312.12" rx="6.264" ry="6.263"/><ellipse cx="410.227" cy="352.203" rx="6.264" ry="6.263"/><ellipse cx="410.227" cy="392.287" rx="6.264" ry="6.263"/><ellipse cx="410.227" cy="432.37" rx="6.264" ry="6.263"/><ellipse cx="410.227" cy="472.454" rx="6.264" ry="6.263"/><ellipse cx="410.227" cy="512.538" rx="6.264" ry="6.263"/><ellipse cx="410.227" cy="552.621" rx="6.264" ry="6.263"/><ellipse cx="410.227" cy="592.705" rx="6.264" ry="6.263"/><ellipse cx="450.318" cy="151.786" rx="6.264" ry="6.263"/><ellipse cx="450.318" cy="191.87" rx="6.264" ry="6.263"/><ellipse cx="450.318" cy="231.953" rx="6.264" ry="6.263"/><ellipse cx="450.318" cy="272.036" rx="6.264" ry="6.263"/><ellipse cx="450.318" cy="312.12" rx="6.264" ry="6.263"/><ellipse cx="450.318" cy="352.203" rx="6.264" ry="6.263"/><ellipse cx="450.318" cy="392.287" rx="6.264" ry="6.263"/><ellipse cx="450.318" cy="432.37" rx="6.264" ry="6.263"/><ellipse cx="450.318" cy="472.454" rx="6.264" ry="6.263"/><ellipse cx="450.318" cy="512.538" rx="6.264" ry="6.263"/><ellipse cx="450.318" cy="552.621" rx="6.264" ry="6.263"/><ellipse cx="450.318" cy="592.705" rx="6.264" ry="6.263"/><ellipse cx="490.41" cy="151.786" rx="6.264" ry="6.263"/><ellipse cx="490.41" cy="191.87" rx="6.264" ry="6.263"/><ellipse cx="490.41" cy="231.953" rx="6.264" ry="6.263"/><ellipse cx="490.41" cy="272.036" rx="6.264" ry="6.263"/><ellipse cx="490.41" cy="312.12" rx="6.264" ry="6.263"/><ellipse cx="490.41" cy="352.203" rx="6.264" ry="6.263"/><ellipse cx="490.41" cy="392.287" rx="6.264" ry="6.263"/><ellipse cx="490.41" cy="432.37" rx="6.264" ry="6.263"/><ellipse cx="490.41" cy="472.454" rx="6.264" ry="6.263"/><ellipse cx="490.41" cy="512.538" rx="6.264" ry="6.263"/><ellipse cx="490.41" cy="552.621" rx="6.264" ry="6.263"/><ellipse cx="490.41" cy="592.705" rx="6.264" ry="6.263"/><ellipse cx="530.501" cy="151.786" rx="6.264" ry="6.263"/><ellipse cx="530.501" cy="191.87" rx="6.264" ry="6.263"/><ellipse cx="530.501" cy="231.953" rx="6.264" ry="6.263"/><ellipse cx="530.501" cy="272.036" rx="6.264" ry="6.263"/><ellipse cx="530.501" cy="312.12" rx="6.264" ry="6.263"/><ellipse cx="530.501" cy="352.203" rx="6.264" ry="6.263"/><ellipse cx="530.501" cy="392.287" rx="6.264" ry="6.263"/><ellipse cx="530.501" cy="432.37" rx="6.264" ry="6.263"/><ellipse cx="530.501" cy="472.454" rx="6.264" ry="6.263"/><ellipse cx="530.501" cy="512.538" rx="6.264" ry="6.263"/><ellipse cx="530.501" cy="552.621" rx="6.264" ry="6.263"/><ellipse cx="530.501" cy="592.705" rx="6.264" ry="6.263"/><ellipse cx="570.593" cy="151.786" rx="6.264" ry="6.263"/><ellipse cx="570.593" cy="191.87" rx="6.264" ry="6.263"/><ellipse cx="570.593" cy="231.953" rx="6.264" ry="6.263"/><ellipse cx="570.593" cy="272.036" rx="6.264" ry="6.263"/><ellipse cx="570.593" cy="312.12" rx="6.264" ry="6.263"/><ellipse cx="570.593" cy="352.203" rx="6.264" ry="6.263"/><ellipse cx="570.593" cy="392.287" rx="6.264" ry="6.263"/><ellipse cx="570.593" cy="432.37" rx="6.264" ry="6.263"/><ellipse cx="570.593" cy="472.454" rx="6.264" ry="6.263"/><ellipse cx="570.593" cy="512.538" rx="6.264" ry="6.263"/><ellipse cx="570.593" cy="552.621" rx="6.264" ry="6.263"/><ellipse cx="570.593" cy="592.705" rx="6.264" ry="6.263"/><ellipse cx="610.684" cy="151.786" rx="6.264" ry="6.263"/><ellipse cx="610.684" cy="191.87" rx="6.264" ry="6.263"/><ellipse cx="610.684" cy="231.953" rx="6.264" ry="6.263"/><ellipse cx="610.684" cy="272.036" rx="6.264" ry="6.263"/><ellipse cx="610.684" cy="312.12" rx="6.264" ry="6.263"/><ellipse cx="610.684" cy="352.203" rx="6.264" ry="6.263"/><ellipse cx="610.684" cy="392.287" rx="6.264" ry="6.263"/><ellipse cx="610.684" cy="432.37" rx="6.264" ry="6.263"/><ellipse cx="610.684" cy="472.454" rx="6.264" ry="6.263"/><ellipse cx="610.684" cy="512.538" rx="6.264" ry="6.263"/><ellipse cx="610.684" cy="552.621" rx="6.264" ry="6.263"/><ellipse cx="610.684" cy="592.705" rx="6.264" ry="6.263"/><ellipse cx="650.776" cy="151.786" rx="6.264" ry="6.263"/><ellipse cx="650.776" cy="191.87" rx="6.264" ry="6.263"/><ellipse cx="650.776" cy="231.953" rx="6.264" ry="6.263"/><ellipse cx="650.776" cy="272.036" rx="6.264" ry="6.263"/><ellipse cx="650.776" cy="312.12" rx="6.264" ry="6.263"/><ellipse cx="650.776" cy="352.203" rx="6.264" ry="6.263"/><ellipse cx="650.776" cy="392.287" rx="6.264" ry="6.263"/><ellipse cx="650.776" cy="432.37" rx="6.264" ry="6.263"/><ellipse cx="650.776" cy="472.454" rx="6.264" ry="6.263"/><ellipse cx="650.776" cy="512.538" rx="6.264" ry="6.263"/><ellipse cx="650.776" cy="552.621" rx="6.264" ry="6.263"/><ellipse cx="650.776" cy="592.705" rx="6.264" ry="6.263"/></g><defs><linearGradient id="paint0_linear_377_2747" x1="651.948" y1="273.255" x2="524.109" y2="121.452" gradientUnits="userSpaceOnUse"><stop stop-color="#B6F1D8"/><stop offset="1" stop-color="#6E9112"/></linearGradient><linearGradient id="paint1_linear_377_2747" x1="-60.891" y1="55.102" x2="187.107" y2="239.75" gradientUnits="userSpaceOnUse"><stop stop-color="#E2F0E7"/><stop offset="1" stop-color="#FFE1BB"/></linearGradient></defs></svg>