<svg width="200" height="6" fill="none" xmlns="http://www.w3.org/2000/svg"><g clip-path="url(#clip0_843_4703)"><path d="M184.006.697c-4.335-.14-8.744-.279-13.154-.418-1.42-.047-2.915-.047-4.335-.093L157.1.046C155.381 0 153.587 0 151.868-.047h-20.403c-1.196 0-2.466 0-3.662.047-3.065.046-6.054.046-9.118.093-3.438.046-6.876.046-10.314.093L91.704.465l-9.641.14-16.592.418c-3.064.093-6.054.14-9.118.232-5.755.233-11.51.42-17.265.605-3.064.093-6.128.186-9.193.326-5.68.279-11.435.604-17.115.93-1.195.046-2.466.14-3.737.186-2.391.14-4.858.372-7.324.558-.15 0-.299.047-.448.047-.3 0-.524.093-.748.232C.15 4.372 0 4.651 0 4.93c0 .28.15.559.523.745.3.186.822.326 1.196.326 2.99-.186 5.904-.419 8.894-.605l8.296-.419c2.99-.14 5.979-.325 9.043-.465 1.196-.046 2.392-.14 3.662-.186 4.709-.14 9.343-.325 14.051-.465l8.745-.279 3.587-.14c4.634-.139 9.268-.232 13.901-.372 2.84-.046 5.606-.14 8.446-.186.971 0 1.868-.046 2.84-.046 5.007-.093 10.015-.14 15.022-.233l8.371-.14c.972 0 2.018-.046 2.99-.046 5.156-.046 10.313-.046 15.545-.093 3.214 0 6.428-.046 9.641-.046 5.456 0 10.987 0 16.443.046 1.046 0 2.167.047 3.214.047 3.064.046 6.053.093 9.118.186l6.801.14c1.644.046 3.214.092 4.858.139 4.708.14 9.492.325 14.2.511l3.588.14c1.27.047 2.615.093 3.886.186.224 0 .374.047.598.093.523.047.972.047 1.42-.14.448-.139.747-.418.897-.697.299-.605-.299-1.256-1.345-1.442-.897-.14-1.794-.186-2.616-.28a23.168 23.168 0 00-1.794-.092c-1.196-.093-2.392-.093-3.513-.186a322.12 322.12 0 01-6.502-.233z" fill="#2B7196"/></g><defs><clipPath id="clip0_843_4703"><path fill="#fff" d="M0 0h200v6H0z"/></clipPath></defs></svg>