<svg width="76" height="76" fill="none" xmlns="http://www.w3.org/2000/svg"><circle cx="38" cy="38" r="38" fill="#FEF4DB"/><circle cx="30.531" cy="26.875" r="3.875" fill="#FEF4DB" stroke="#001922" stroke-width="1.4" stroke-linecap="round"/><circle cx="37.98" cy="36.764" r="3.875" fill="#FEF4DB" stroke="#001922" stroke-width="1.4" stroke-linecap="round"/><path d="M30.598 44.915c.614-.4 1.525-.412 1.904-.367h10.89c.379-.045 1.29-.034 1.904.367.769.502 1.203 3.408-.935 5.88C42.967 52.407 40.457 53 37.947 53s-5.02-.593-6.414-2.205c-2.138-2.472-1.704-5.379-.936-5.88z" fill="#FEF4DB" stroke="#001922" stroke-width="1.4" stroke-linecap="round"/><path d="M31.166 34.492h-5.77c-.56 0-1.16-.133-1.663.112-.245.118-.516.322-.786.657-.835 1.035-.534 3.34.97 5.11 1.202 1.417 3.462 2.417 4.442 2.74m16.475-8.619h5.77c.56 0 1.16-.133 1.663.112.245.118.516.322.786.657.835 1.035.534 3.34-.97 5.11-1.202 1.417-3.462 2.417-4.442 2.74" stroke="#001922" stroke-width="1.4" stroke-linecap="round"/><circle cx="45.297" cy="26.875" r="3.875" fill="#FEF4DB" stroke="#001922" stroke-width="1.4" stroke-linecap="round"/></svg>