<svg width="24" height="34" fill="none" xmlns="http://www.w3.org/2000/svg"><g stroke="#001922" stroke-width="1.4"><path d="M7.531 5.344v-3.75H17.72v2.47m-8.376 22.78v5.718h10.469v-8.437c.885-1.323 2.643-4.369 2.718-5.344m.25-2.031c-.093-1.094-.493-3.1-1.593-4.5-1.375-1.75-3.094-3.406-3.657-3.406-.562 0-1.093.094-1.656.437-.563.344-3.906 2.25-4.563 2.5-.656.25-.562 1.469.72 2.125 1.28.656 1.687.594 2.343.375.525-.175 1.823-.864 2.406-1.187l1.719 2.531c-.438 1.583-1.444 4.944-1.969 5.719-.525.775-2.364 2.135-3.218 2.718m4.5-17.812v2.656" stroke-linecap="round" stroke-linejoin="round"/><path d="M11.813 25.094l-3.657 2.625c-.406.156-1.562.843-2.375-.375-.76-1.14.167-2.24.594-2.407l3.281-2.406M8.048 19.77l-3.281 2.407c-.427.166-1.354 1.267-.594 2.406.507.762 1.15.779 1.659.647m.543-8.136l-2.521 1.77c-.428.166-1.356 1.268-.595 2.41.508.762 1.151.78 1.662.647" stroke-linecap="round" stroke-linejoin="round"/><path d="M4.281 14.625l-1.896 1.332c-.428.167-1.356 1.27-.595 2.41.509.763 1.325.828 1.835.695" stroke-linecap="round" stroke-linejoin="round"/><rect x="4.077" y="7.136" width="2.942" height="5.391" rx="1.471" transform="rotate(-65.298 4.077 7.136)"/><rect x="2.751" y="10.019" width="3.173" height="5.391" rx="1.5" transform="rotate(-65.298 2.75 10.019)"/><rect x="1.324" y="13.084" width="3.388" height="5.391" rx="1.5" transform="rotate(-65.298 1.324 13.084)"/></g></svg>