<svg width="76" height="76" fill="none" xmlns="http://www.w3.org/2000/svg"><circle cx="38" cy="38" r="38" fill="#E2F0E7"/><path d="M20.475 54.626c1.038-.5 3.479-1.503 4.939-1.503 1.825 0 9.394 2.362 10.145 2.63.752.269 3.865.054 5.154-.268 1.288-.322 15.728-7.462 16.855-8.374 1.128-.913 1.557-1.932.966-3.382-.59-1.45-1.878-1.18-3.113-.805-.988.3-6.352 2.308-8.91 3.274" stroke="#001922" stroke-width="1.4" stroke-linecap="round"/><path d="M17.2 44.695c1.02-.304 3.307-1.095 4.295-1.825 1.235-.912 3.06-3.006 5.744-2.362 2.684.645 4.992 2.577 6.978 3.114 1.986.537 9.555 1.127 10.843 1.879 1.289.751 1.981 2.004 1.195 3.194-.497.751-1.41.724-3.288.778-2.636.075-6.04-.161-7.998-.322-1.96-.161-2.47-.39-3.543-.658m1.932-9.703v-3.748a5 5 0 015-5h3.23a5 5 0 015 5v6.112m3.357-8.832h2.056a5 5 0 015 5v2.166M30 32.322h-2.056a5 5 0 00-5 5v.18" stroke="#001922" stroke-width="1.4" stroke-linecap="round"/><circle cx="29.459" cy="25.62" r="3.401" fill="#E2F0E7" stroke="#001922" stroke-width="1.4" stroke-linecap="round"/><circle cx="39.972" cy="23.526" r="3.401" fill="#E2F0E7" stroke="#001922" stroke-width="1.4" stroke-linecap="round"/><circle cx="50.486" cy="25.783" r="3.401" fill="#E2F0E7" stroke="#001922" stroke-width="1.4" stroke-linecap="round"/></svg>