<svg width="76" height="76" fill="none" xmlns="http://www.w3.org/2000/svg"><circle cx="38" cy="38" r="38" fill="#E2F0E7"/><path d="M46 26.5V25a2 2 0 00-2-2H28a2 2 0 00-2 2v24a2 2 0 002 2h1.5" stroke="#001922"/><path d="M31 26.5h16.5A1.5 1.5 0 0149 28v17.715a1.5 1.5 0 01-.4 1.02l-5.373 5.786a1.5 1.5 0 01-1.1.479H31a1.5 1.5 0 01-1.5-1.5V28a1.5 1.5 0 011.5-1.5z" stroke="#001922"/><path fill-rule="evenodd" clip-rule="evenodd" d="M46 31.5a.5.5 0 01-.5.5h-12a.5.5 0 010-1h12a.5.5 0 01.5.5zm0 3a.5.5 0 01-.5.5h-12a.5.5 0 010-1h12a.5.5 0 01.5.5zm0 3a.5.5 0 01-.5.5h-12a.5.5 0 010-1h12a.5.5 0 01.5.5zm-6 3a.5.5 0 01-.5.5h-6a.5.5 0 010-1h6a.5.5 0 01.5.5z" fill="#001922"/><path d="M42 53v-5a2 2 0 012-2h5" stroke="#001922"/></svg>