<svg width="76" height="76" fill="none" xmlns="http://www.w3.org/2000/svg"><circle cx="38" cy="38" r="38" fill="#FEF4DB"/><path d="M29.79 43.5c-.281.135-1.536-.193-2.184-.75-.649-.557-1.035-1.188-1.035-1.906v-7.938c0-.625-.026-1.218 1.035-2.312.861-.888 2.012-.995 2.434-1.032h3.781" stroke="#001922" stroke-width="1.4" stroke-linecap="round"/><path d="M37.567 43.5c.282.135 1.537-.193 2.185-.75.648-.557 1.034-1.188 1.034-1.906v-7.938c0-.625.027-1.218-1.034-2.312-.862-.888-2.013-.995-2.435-1.032h-3.78m-3.556 6.126v18.096c0 .372.024.754.206 1.079.263.473.773.98 1.62.98.779 0 1.299-.43 1.605-.868.27-.384.312-.87.312-1.338v-8.575" stroke="#001922" stroke-width="1.4" stroke-linecap="round"/><path d="M37.466 35.688v18.096c0 .372-.024.754-.205 1.079-.264.473-.773.98-1.62.98-.78 0-1.3-.43-1.606-.868-.269-.384-.311-.87-.311-1.338v-8.575m8.82-21.562c1.52-.104 5.025.35 6.875 3 2.312 3.312 1.25 7.187.312 8.437-.937 1.25-1.89 1.86-2.64 3.485-.422.914-.297 2.765-.594 2.765h-1.266s0 0 0 0h-2.687m.437-23.749v2.312m10.286 2.04l-1.572 1.697m5.192 7.356l-2.311.091m-12.157 13.16h3.875m-4 2.75h3.094" stroke="#001922" stroke-width="1.4" stroke-linecap="round"/><circle cx="33.685" cy="23.813" r="3.656" stroke="#001922" stroke-width="1.4" stroke-linecap="round"/></svg>