<svg width="76" height="76" fill="none" xmlns="http://www.w3.org/2000/svg"><circle cx="38" cy="38" r="38" fill="#E4E0FE"/><path d="M44.988 54.397c1.005.925 1.58 2.171 1.608 3.476a.098.098 0 01-.099.1H35.711a.098.098 0 01-.099-.1c.028-1.305.604-2.551 1.608-3.476 1.03-.949 2.428-1.482 3.884-1.482 1.457 0 2.854.533 3.884 1.482z" stroke="#001922" stroke-width="1.4"/><path d="M46.596 57.873l-.7.015.7-.015zm-1.549-3.421l-.481-.508-.535.508.534.507.482-.507zm1.45 3.521l-.001-.7.002 1.4v-.7zm2.493 0v.7-.7zm5.492-.1l-.7.015.7-.015zm-1.608-3.476l-.474.515.474-.515zm-7.768 0l-.474-.515.474.515zm2.19 3.461c-.031-1.475-.67-2.872-1.767-3.914l-.964 1.015c.84.797 1.308 1.845 1.332 2.93l1.4-.03zm-.796.815a.798.798 0 00.796-.815l-1.4.03a.602.602 0 01.6-.615l.004 1.4zm-.002 0h2.492v-1.4h-2.492v1.4zm2.492 0h5.393v-1.4H48.99v1.4zm5.393 0a.798.798 0 00.799-.815l-1.4.03a.602.602 0 01.601-.615v1.4zm.799-.815c-.032-1.504-.696-2.928-1.834-3.976l-.948 1.03c.871.802 1.358 1.87 1.382 2.976l1.4-.03zm-1.834-3.976c-1.165-1.073-2.733-1.667-4.358-1.667v1.4c1.29 0 2.515.472 3.41 1.297l.948-1.03zm-4.358-1.667c-1.625 0-3.193.594-4.358 1.667l.948 1.03c.895-.825 2.121-1.297 3.41-1.297v-1.4zm-4.358 1.667c-.023.02-.045.041-.066.062l.963 1.015.051-.047-.948-1.03z" fill="#001922"/><circle cx="41.036" cy="49.014" r="2.679" stroke="#001922" stroke-width="1.4"/><circle cx="48.841" cy="49.014" r="2.679" stroke="#001922" stroke-width="1.4"/><path d="M37.438 24.406h17.468m-17.468 5.625h17.468" stroke="#001922" stroke-width="1.4" stroke-linecap="round"/><circle cx="28.578" cy="31.016" r="2.953" stroke="#001922" stroke-width="1.4"/><path d="M28.531 40.375L26.95 36.31a.2.2 0 00-.03-.053l-.172-.213a.2.2 0 00-.156-.075h-1.013a.2.2 0 00-.089.02l-4.188 2.064a.2.2 0 00-.105.13l-2 7.816a.186.186 0 00-.005.066c.04.386.258 1.126.84 1.248.59.122 1.027-.429 1.18-.735a.18.18 0 00.013-.033l1.88-6.78a.2.2 0 01.09-.118l.848-.5a.2.2 0 01.302.172v16.993c.041.51.406 1.532 1.531 1.532s1.49-1.021 1.531-1.532v-7.624c.01-.407.25-1.22 1.125-1.22m.046-7.093l1.583-4.065a.198.198 0 01.03-.053l.17-.213a.2.2 0 01.157-.075h1.03a.2.2 0 01.06.01l.908.288c.03.01.058.026.081.049l2.384 2.384a.2.2 0 00.247.029l3.17-1.97a.2.2 0 01.272.057l1 1.487a.2.2 0 01-.054.278l-4.553 3.084a.2.2 0 01-.241-.013l-1.727-1.466a.2.2 0 00-.33.152v15.974c-.041.51-.406 1.532-1.53 1.532-1.126 0-1.49-1.021-1.532-1.532v-7.624c-.01-.407-.25-1.22-1.125-1.22m16.641-13.937l-5.688 3.844" stroke="#001922" stroke-width="1.4" stroke-linecap="round"/><path d="M19.625 44.219v0a2 2 0 01-2-2v-21.25a2 2 0 012-2h36.75a2 2 0 012 2v21.25a2 2 0 01-2 2H32.75" stroke="#001922" stroke-width="1.4"/></svg>