<svg width="40" height="40" fill="none" xmlns="http://www.w3.org/2000/svg"><g stroke="#001922" stroke-width="1.4" stroke-linecap="round" stroke-linejoin="round"><path d="M18.334 10c0 1.326.878 2.598 2.44 3.536 1.563.937 3.683 1.464 5.893 1.464s4.33-.527 5.892-1.464C34.122 12.598 35 11.326 35 10s-.878-2.598-2.44-3.536C30.996 5.527 28.876 5 26.666 5s-4.33.527-5.893 1.464c-1.563.938-2.44 2.21-2.44 3.536z"/><path d="M18.334 10v6.667c0 2.761 3.731 5 8.333 5 4.601 0 8.333-2.239 8.333-5V10"/><path d="M18.334 16.667v6.667c0 2.761 3.731 5 8.333 5 4.601 0 8.333-2.239 8.333-5v-6.667"/><path d="M18.334 23.333V30c0 2.761 3.731 5 8.333 5C31.268 35 35 32.76 35 30v-6.667M11.667 15H7.5a2.5 2.5 0 000 5h1.667a2.5 2.5 0 110 5H5m3.334 0v1.666m0-13.333V15"/></g></svg>