<svg xmlns="http://www.w3.org/2000/svg" aria-hidden="true" style="position:absolute;width:0;height:0" overflow="hidden"><defs><symbol id="icon-arrow-right" viewBox="0 0 32 32"><path d="M25.957 15.667c0 .736-.597 1.333-1.333 1.333H6.711a1.333 1.333 0 010-2.666h17.913c.736 0 1.333.597 1.333 1.333z"/><path d="M15.667 6.71a1.333 1.333 0 011.886 0l8.014 8.014a1.333 1.333 0 010 1.886l-8.014 8.014a1.333 1.333 0 11-1.886-1.886l7.071-7.071-7.071-7.071a1.333 1.333 0 010-1.886z"/></symbol><symbol id="arrow-up-right" viewBox="0 0 32 32"><path d="M22.943 8.391a1.333 1.333 0 010 1.886L10.276 22.944a1.333 1.333 0 11-1.886-1.886L21.057 8.391a1.333 1.333 0 011.886 0z"/><path d="M9.333 9.333C9.333 8.597 9.93 8 10.666 8h11.333c.736 0 1.333.597 1.333 1.333v11.333a1.333 1.333 0 01-2.666 0v-10h-10a1.333 1.333 0 01-1.333-1.333z"/></symbol><symbol id="chevron-down-menu" viewBox="0 0 32 32"><path d="M11.057 13.724a1.333 1.333 0 011.886 0L16 16.781l3.057-3.057a1.333 1.333 0 111.886 1.886l-4 4a1.333 1.333 0 01-1.886 0l-4-4a1.333 1.333 0 010-1.886z"/></symbol><symbol id="chevron-left" viewBox="0 0 32 32"><path d="M12.293 16.957A.996.996 0 0112 16.25v-.507c.003-.265.108-.518.293-.707l6.853-6.84a.668.668 0 01.946 0l.947.947a.655.655 0 010 .934l-5.933 5.92 5.933 5.92a.668.668 0 010 .946l-.947.933a.668.668 0 01-.946 0l-6.853-6.84z"/></symbol><symbol id="chevron-right" viewBox="0 0 32 32"><path d="M21.04 16.957a.996.996 0 00.293-.707v-.507a1.027 1.027 0 00-.293-.707l-6.853-6.84a.668.668 0 00-.946 0l-.947.947a.655.655 0 000 .934l5.933 5.92-5.933 5.92a.668.668 0 000 .946l.947.933a.668.668 0 00.946 0l6.853-6.84z"/></symbol><symbol id="chevron-up" viewBox="0 0 32 32"><path d="M20.943 19.609a1.333 1.333 0 01-1.886 0L16 16.552l-3.057 3.057a1.333 1.333 0 11-1.886-1.886l4-4a1.333 1.333 0 011.886 0l4 4a1.333 1.333 0 010 1.886z"/></symbol><symbol id="facebook" viewBox="0 0 32 32"><path d="M17.2 17.4h2.333l.933-3.733h-3.267V11.8c0-.961 0-1.867 1.867-1.867h1.4V6.797c-.304-.04-1.453-.131-2.667-.131-2.534 0-4.333 1.547-4.333 4.387v2.613h-2.8v3.733h2.8v7.933h3.733v-7.933z"/></symbol><symbol id="instagram" viewBox="0 0 32 32"><path d="M12.572 8.933a3.638 3.638 0 00-3.639 3.639v6.857a3.638 3.638 0 003.639 3.638h6.857a3.635 3.635 0 003.638-3.638v-6.857a3.64 3.64 0 00-3.638-3.639h-6.857zm-3.893-.254a5.504 5.504 0 013.892-1.612h6.857a5.504 5.504 0 015.504 5.504v6.857a5.504 5.504 0 01-5.504 5.504h-6.857a5.504 5.504 0 01-5.504-5.504v-6.857c0-1.46.58-2.86 1.612-3.892zM16 13.505a2.494 2.494 0 100 4.988 2.494 2.494 0 000-4.988zm-3.084-.589a4.361 4.361 0 116.169 6.167 4.361 4.361 0 01-6.169-6.167z"/><path d="M21.867 11.6a.933.933 0 11-1.867 0 .933.933 0 011.867 0z"/></symbol><symbol id="mail" viewBox="0 0 32 32"><path d="M9.333 10.267a.4.4 0 00-.4.4V22a.4.4 0 00.4.4H24a.4.4 0 00.4-.4V10.667a.4.4 0 00-.4-.4H9.333zm-2.266.4A2.267 2.267 0 019.334 8.4h14.667a2.267 2.267 0 012.267 2.267V22a2.267 2.267 0 01-2.267 2.267H9.334A2.267 2.267 0 017.067 22V10.667z"/><path d="M7.29 10.394a.933.933 0 011.316-.104l7.808 6.662a.401.401 0 00.506 0l7.808-6.662a.933.933 0 111.212 1.42l-7.822 6.674a2.268 2.268 0 01-2.902 0l-.009-.007-7.813-6.667a.933.933 0 01-.104-1.316z"/></symbol><symbol id="phone" viewBox="0 0 32 32"><path d="M17.638 17.638c-2.111 2.109-4.556 4.128-5.523 3.161-1.383-1.383-2.236-2.588-5.287-.136-3.049 2.451-.707 4.085.633 5.424 1.547 1.547 7.312.083 13.011-5.615 5.697-5.699 7.157-11.464 5.609-13.011-1.34-1.341-2.967-3.683-5.417-.633-2.452 3.049-1.248 3.903.137 5.287.963.967-1.055 3.412-3.164 5.523z"/></symbol><symbol id="telegram" viewBox="0 0 32 32"><path d="M26.792 9.527L23.343 23.76c-.26 1.005-.939 1.255-1.903.781l-5.256-3.389-2.536 2.134c-.281.246-.515.451-1.056.451l.378-4.683 9.741-7.702c.423-.33-.092-.513-.658-.183l-12.042 6.635-5.184-1.42c-1.128-.308-1.148-.987.235-1.46l20.277-6.835c.939-.308 1.76.183 1.454 1.438z"/></symbol><symbol id="youtube" viewBox="0 0 24 24"><path d="M19.666 7.874c-.184-.738-.727-1.319-1.415-1.516C17.003 6 12 6 12 6s-5.003 0-6.251.358c-.688.197-1.23.778-1.415 1.516C4 9.21 4 12 4 12s0 2.79.334 4.126c.184.738.727 1.319 1.415 1.516C6.997 18 12 18 12 18s5.003 0 6.251-.358c.688-.197 1.23-.778 1.415-1.516C20 14.79 20 12 20 12s0-2.79-.334-4.126zm-9.302 6.659V9.468L14.545 12l-4.181 2.532z"/></symbol><symbol id="burger" viewBox="0 0 32 32"><path d="M9.722 9.394c-.239.069-.357.27-.357.607 0 .35.117.537.382.611.272.075 14.204.078 14.474.002.306-.085.395-.223.395-.613s-.09-.528-.395-.613c-.252-.07-14.257-.065-14.5.005zm-2.088 6.043c-.177.098-.269.286-.271.555-.003.284.106.503.29.587.106.049 2.099.064 8.354.064 8.932 0 8.432.017 8.573-.292a1.027 1.027 0 000-.696c-.141-.309.362-.292-8.588-.29-6.729.002-8.254.014-8.358.072zm2.088 5.959c-.239.069-.357.27-.357.607 0 .35.117.537.382.611.272.075 14.204.078 14.474.002.306-.084.395-.223.395-.613s-.09-.528-.395-.613c-.252-.07-14.257-.065-14.5.006z"/></symbol><symbol id="cross" viewBox="0 0 32 32"><path d="M10.363 10.085c-.206.132-.389.411-.389.593 0 .073.069.226.155.341s1.309 1.36 2.72 2.768l2.565 2.56-2.689 2.694c-1.814 1.817-2.702 2.742-2.726 2.842-.084.344.299.785.683.785h.223l5.416-5.412 2.681 2.675c1.789 1.785 2.729 2.688 2.827 2.712.217.053.409-.013.605-.21s.263-.389.21-.605c-.024-.098-.926-1.038-2.712-2.828l-2.676-2.681 2.648-2.653c1.456-1.459 2.674-2.706 2.706-2.77.115-.227.07-.393-.174-.637-.204-.203-.263-.233-.466-.233h-.232l-5.39 5.386-2.56-2.565c-1.407-1.411-2.653-2.636-2.768-2.72-.245-.182-.421-.194-.657-.043z"/></symbol></defs></svg>