<svg width="376" height="376" viewBox="0 0 376 376" fill="none" xmlns="http://www.w3.org/2000/svg">
<rect width="12.6174" height="12.6174" fill="#E2F0E7"/>
<rect y="40.376" width="12.6174" height="12.6174" fill="#E2F0E7"/>
<rect y="80.752" width="12.6174" height="12.6174" fill="#E2F0E7"/>
<rect y="121.127" width="12.6174" height="12.6174" fill="#E2F0E7"/>
<rect y="161.503" width="12.6174" height="12.6174" fill="#E2F0E7"/>
<rect y="201.879" width="12.6174" height="12.6174" fill="#E2F0E7"/>
<rect y="242.255" width="12.6174" height="12.6174" fill="#E2F0E7"/>
<rect y="282.631" width="12.6174" height="12.6174" fill="#E2F0E7"/>
<rect y="323.007" width="12.6174" height="12.6174" fill="#E2F0E7"/>
<rect y="363.383" width="12.6174" height="12.6174" fill="#E2F0E7"/>
<rect x="40.375" width="12.6174" height="12.6174" fill="#E2F0E7"/>
<rect x="40.375" y="40.376" width="12.6174" height="12.6174" fill="#E2F0E7"/>
<rect x="40.375" y="80.752" width="12.6174" height="12.6174" fill="#E2F0E7"/>
<rect x="40.375" y="121.127" width="12.6174" height="12.6174" fill="#E2F0E7"/>
<rect x="40.375" y="161.504" width="12.6174" height="12.6174" fill="#E2F0E7"/>
<rect x="40.375" y="201.879" width="12.6174" height="12.6174" fill="#E2F0E7"/>
<rect x="40.375" y="242.255" width="12.6174" height="12.6174" fill="#E2F0E7"/>
<rect x="40.375" y="282.631" width="12.6174" height="12.6174" fill="#E2F0E7"/>
<rect x="40.375" y="323.007" width="12.6174" height="12.6174" fill="#E2F0E7"/>
<rect x="40.375" y="363.383" width="12.6174" height="12.6174" fill="#E2F0E7"/>
<rect x="80.752" width="12.6174" height="12.6174" fill="#E2F0E7"/>
<rect x="80.752" y="40.376" width="12.6174" height="12.6174" fill="#E2F0E7"/>
<rect x="80.752" y="80.752" width="12.6174" height="12.6174" fill="#E2F0E7"/>
<rect x="80.752" y="121.127" width="12.6174" height="12.6174" fill="#E2F0E7"/>
<rect x="80.752" y="161.504" width="12.6174" height="12.6174" fill="#E2F0E7"/>
<rect x="80.752" y="201.879" width="12.6174" height="12.6174" fill="#E2F0E7"/>
<rect x="80.752" y="242.255" width="12.6174" height="12.6174" fill="#E2F0E7"/>
<rect x="80.752" y="282.631" width="12.6174" height="12.6174" fill="#E2F0E7"/>
<rect x="80.752" y="323.007" width="12.6174" height="12.6174" fill="#E2F0E7"/>
<rect x="80.752" y="363.383" width="12.6174" height="12.6174" fill="#E2F0E7"/>
<rect x="121.129" width="12.6174" height="12.6174" fill="#E2F0E7"/>
<rect x="121.129" y="40.376" width="12.6174" height="12.6174" fill="#E2F0E7"/>
<rect x="121.129" y="80.752" width="12.6174" height="12.6174" fill="#E2F0E7"/>
<rect x="121.129" y="121.127" width="12.6174" height="12.6174" fill="#E2F0E7"/>
<rect x="121.129" y="161.504" width="12.6174" height="12.6174" fill="#E2F0E7"/>
<rect x="121.129" y="201.879" width="12.6174" height="12.6174" fill="#E2F0E7"/>
<rect x="121.129" y="242.255" width="12.6174" height="12.6174" fill="#E2F0E7"/>
<rect x="121.129" y="282.631" width="12.6174" height="12.6174" fill="#E2F0E7"/>
<rect x="121.129" y="323.007" width="12.6174" height="12.6174" fill="#E2F0E7"/>
<rect x="121.129" y="363.383" width="12.6174" height="12.6174" fill="#E2F0E7"/>
<rect x="161.504" width="12.6174" height="12.6174" fill="#E2F0E7"/>
<rect x="161.504" y="40.376" width="12.6174" height="12.6174" fill="#E2F0E7"/>
<rect x="161.504" y="80.752" width="12.6174" height="12.6174" fill="#E2F0E7"/>
<rect x="161.504" y="121.127" width="12.6174" height="12.6174" fill="#E2F0E7"/>
<rect x="161.504" y="161.504" width="12.6174" height="12.6174" fill="#E2F0E7"/>
<rect x="161.504" y="201.879" width="12.6174" height="12.6174" fill="#E2F0E7"/>
<rect x="161.504" y="242.255" width="12.6174" height="12.6174" fill="#E2F0E7"/>
<rect x="161.504" y="282.631" width="12.6174" height="12.6174" fill="#E2F0E7"/>
<rect x="161.504" y="323.007" width="12.6174" height="12.6174" fill="#E2F0E7"/>
<rect x="161.504" y="363.383" width="12.6174" height="12.6174" fill="#E2F0E7"/>
<rect x="201.879" width="12.6174" height="12.6174" fill="#E2F0E7"/>
<rect x="201.879" y="40.376" width="12.6174" height="12.6174" fill="#E2F0E7"/>
<rect x="201.879" y="80.752" width="12.6174" height="12.6174" fill="#E2F0E7"/>
<rect x="201.879" y="121.127" width="12.6174" height="12.6174" fill="#E2F0E7"/>
<rect x="201.879" y="161.504" width="12.6174" height="12.6174" fill="#E2F0E7"/>
<rect x="201.879" y="201.879" width="12.6174" height="12.6174" fill="#E2F0E7"/>
<rect x="201.879" y="242.255" width="12.6174" height="12.6174" fill="#E2F0E7"/>
<rect x="201.879" y="282.631" width="12.6174" height="12.6174" fill="#E2F0E7"/>
<rect x="201.879" y="323.007" width="12.6174" height="12.6174" fill="#E2F0E7"/>
<rect x="201.879" y="363.383" width="12.6174" height="12.6174" fill="#E2F0E7"/>
<rect x="242.256" width="12.6174" height="12.6174" fill="#E2F0E7"/>
<rect x="242.256" y="40.376" width="12.6174" height="12.6174" fill="#E2F0E7"/>
<rect x="242.256" y="80.752" width="12.6174" height="12.6174" fill="#E2F0E7"/>
<rect x="242.256" y="121.127" width="12.6174" height="12.6174" fill="#E2F0E7"/>
<rect x="242.256" y="161.504" width="12.6174" height="12.6174" fill="#E2F0E7"/>
<rect x="242.256" y="201.879" width="12.6174" height="12.6174" fill="#E2F0E7"/>
<rect x="242.256" y="242.255" width="12.6174" height="12.6174" fill="#E2F0E7"/>
<rect x="242.256" y="282.631" width="12.6174" height="12.6174" fill="#E2F0E7"/>
<rect x="242.256" y="323.007" width="12.6174" height="12.6174" fill="#E2F0E7"/>
<rect x="242.256" y="363.383" width="12.6174" height="12.6174" fill="#E2F0E7"/>
<rect x="282.631" width="12.6174" height="12.6174" fill="#E2F0E7"/>
<rect x="282.631" y="40.376" width="12.6174" height="12.6174" fill="#E2F0E7"/>
<rect x="282.631" y="80.752" width="12.6174" height="12.6174" fill="#E2F0E7"/>
<rect x="282.631" y="121.127" width="12.6174" height="12.6174" fill="#E2F0E7"/>
<rect x="282.631" y="161.503" width="12.6174" height="12.6174" fill="#E2F0E7"/>
<rect x="282.631" y="201.879" width="12.6174" height="12.6174" fill="#E2F0E7"/>
<rect x="282.631" y="242.255" width="12.6174" height="12.6174" fill="#E2F0E7"/>
<rect x="282.631" y="282.631" width="12.6174" height="12.6174" fill="#E2F0E7"/>
<rect x="282.631" y="323.007" width="12.6174" height="12.6174" fill="#E2F0E7"/>
<rect x="282.631" y="363.383" width="12.6174" height="12.6174" fill="#E2F0E7"/>
<rect x="323.006" width="12.6174" height="12.6174" fill="#E2F0E7"/>
<rect x="323.006" y="40.376" width="12.6174" height="12.6174" fill="#E2F0E7"/>
<rect x="323.006" y="80.752" width="12.6174" height="12.6174" fill="#E2F0E7"/>
<rect x="323.006" y="121.127" width="12.6174" height="12.6174" fill="#E2F0E7"/>
<rect x="323.006" y="161.504" width="12.6174" height="12.6174" fill="#E2F0E7"/>
<rect x="323.006" y="201.879" width="12.6174" height="12.6174" fill="#E2F0E7"/>
<rect x="323.006" y="242.255" width="12.6174" height="12.6174" fill="#E2F0E7"/>
<rect x="323.006" y="282.631" width="12.6174" height="12.6174" fill="#E2F0E7"/>
<rect x="323.006" y="323.007" width="12.6174" height="12.6174" fill="#E2F0E7"/>
<rect x="323.006" y="363.383" width="12.6174" height="12.6174" fill="#E2F0E7"/>
<rect x="363.383" width="12.6174" height="12.6174" fill="#E2F0E7"/>
<rect x="363.383" y="40.376" width="12.6174" height="12.6174" fill="#E2F0E7"/>
<rect x="363.383" y="80.752" width="12.6174" height="12.6174" fill="#E2F0E7"/>
<rect x="363.383" y="121.127" width="12.6174" height="12.6174" fill="#E2F0E7"/>
<rect x="363.383" y="161.504" width="12.6174" height="12.6174" fill="#E2F0E7"/>
<rect x="363.383" y="201.879" width="12.6174" height="12.6174" fill="#E2F0E7"/>
<rect x="363.383" y="242.255" width="12.6174" height="12.6174" fill="#E2F0E7"/>
<rect x="363.383" y="282.631" width="12.6174" height="12.6174" fill="#E2F0E7"/>
<rect x="363.383" y="323.007" width="12.6174" height="12.6174" fill="#E2F0E7"/>
<rect x="363.383" y="363.383" width="12.6174" height="12.6174" fill="#E2F0E7"/>
</svg>
