<svg width="200" height="6" viewBox="0 0 200 6" fill="none" xmlns="http://www.w3.org/2000/svg">
<g clip-path="url(#clip0_843_4703)">
<path d="M184.006 0.697311C179.671 0.557776 175.262 0.418241 170.852 0.278706C169.432 0.232195 167.937 0.232195 166.517 0.185683C163.378 0.139172 160.239 0.0926599 157.1 0.0461483C155.381 -0.000363369 153.587 -0.000363369 151.868 -0.046875C151.345 -0.046875 150.822 -0.046875 150.374 -0.046875C149.253 -0.046875 148.132 -0.046875 146.936 -0.046875C141.779 -0.046875 136.622 -0.046875 131.465 -0.046875C130.269 -0.046875 128.999 -0.046875 127.803 -0.000363369C124.738 0.0461483 121.749 0.0461483 118.685 0.0926599C115.247 0.139172 111.809 0.139172 108.371 0.185683C102.84 0.278706 97.2347 0.37173 91.704 0.464753C88.4903 0.511265 85.2765 0.557776 82.0628 0.604288C76.5322 0.743823 71.0015 0.883358 65.4709 1.02289C62.4066 1.11592 59.417 1.16243 56.3528 1.25545C50.5979 1.48801 44.8431 1.67406 39.0882 1.8601C36.0239 1.95312 32.9596 2.04615 29.8954 2.18568C24.2153 2.46475 18.4604 2.79033 12.7803 3.11592C11.5845 3.16243 10.3139 3.25545 9.04335 3.30196C6.65172 3.4415 4.18535 3.67406 1.71898 3.8601C1.56951 3.8601 1.42003 3.90661 1.27055 3.90661C0.9716 3.90661 0.747384 3.99964 0.523169 4.13917C0.149477 4.37173 0 4.6508 0 4.92987C0 5.20894 0.149477 5.48801 0.523169 5.67406C0.822123 5.8601 1.34529 5.99964 1.71898 5.99964C4.70852 5.81359 7.62332 5.58103 10.6129 5.39499C13.3782 5.25545 16.1435 5.11592 18.9088 4.97638C21.8984 4.83685 24.8879 4.6508 27.9522 4.51126C29.148 4.46475 30.3438 4.37173 31.6144 4.32522C36.3229 4.18568 40.9567 3.99964 45.6652 3.8601C48.58 3.76708 51.4948 3.67406 54.4096 3.58103C55.6054 3.53452 56.8012 3.48801 57.997 3.4415C62.6308 3.30196 67.2646 3.20894 71.8984 3.0694C74.7384 3.02289 77.5037 2.92987 80.3438 2.88336C81.3154 2.88336 82.2123 2.83685 83.1839 2.83685C88.1913 2.74382 93.1988 2.69731 98.2063 2.60429C100.972 2.55778 103.812 2.51126 106.577 2.46475C107.549 2.46475 108.595 2.41824 109.567 2.41824C114.723 2.37173 119.88 2.37173 125.112 2.32522C128.326 2.32522 131.54 2.27871 134.753 2.27871C140.209 2.27871 145.74 2.27871 151.196 2.32522C152.242 2.32522 153.363 2.37173 154.41 2.37173C157.474 2.41824 160.463 2.46475 163.528 2.55778C165.77 2.60429 168.087 2.6508 170.329 2.69731C171.973 2.74382 173.543 2.79033 175.187 2.83685C179.895 2.97638 184.679 3.16243 189.387 3.34847C190.583 3.39499 191.779 3.4415 192.975 3.48801C194.245 3.53452 195.59 3.58103 196.861 3.67406C197.085 3.67406 197.235 3.72057 197.459 3.76708C197.982 3.81359 198.431 3.81359 198.879 3.62754C199.327 3.48801 199.626 3.20894 199.776 2.92987C200.075 2.32522 199.477 1.67406 198.431 1.48801C197.534 1.34847 196.637 1.30196 195.815 1.20894C195.217 1.16243 194.619 1.11592 194.021 1.11592C192.825 1.02289 191.629 1.02289 190.508 0.929869C188.416 0.883358 186.173 0.790334 184.006 0.697311Z" fill="#2B7196"/>
</g>
<defs>
<clipPath id="clip0_843_4703">
<rect width="200" height="6" fill="white"/>
</clipPath>
</defs>
</svg>
