<svg width="674" height="606" viewBox="0 0 674 606" fill="none" xmlns="http://www.w3.org/2000/svg">
<path fill-rule="evenodd" clip-rule="evenodd" d="M580.13 580.694L578.775 581.492L577.411 582.272L576.039 583.033L574.659 583.775L573.271 584.499L571.876 585.205L570.475 585.892L569.066 586.562L567.652 587.215L566.233 587.85L564.808 588.469L563.378 589.072L561.943 589.659L560.504 590.23L559.061 590.787L557.615 591.329L556.165 591.857L554.711 592.371L553.255 592.872L551.795 593.36L550.333 593.836L548.868 594.301L547.4 594.754L545.93 595.196L544.457 595.628L542.982 596.05L541.504 596.462L540.023 596.865L538.54 597.26L537.054 597.645L535.564 598.023L534.072 598.392L532.576 598.754L531.076 599.108L529.573 599.454L528.066 599.793L526.555 600.125L525.039 600.449L523.519 600.766L521.993 601.075L520.463 601.377L518.927 601.67L517.385 601.956L515.838 602.233L514.284 602.501L512.724 602.761L511.157 603.01L509.584 603.25L508.004 603.479L506.417 603.696L504.823 603.903L503.221 604.096L501.613 604.277L499.997 604.444L498.375 604.596L496.745 604.733L495.108 604.854L493.465 604.958L491.815 605.044L490.158 605.111L488.495 605.159L486.827 605.187L485.153 605.193L483.475 605.177L481.792 605.138L480.105 605.074L478.414 604.986L476.721 604.872L475.026 604.731L473.329 604.563L471.632 604.366L469.934 604.14L468.238 603.884L466.543 603.597L464.852 603.279L463.164 602.928L461.48 602.545L459.802 602.128L458.131 601.678L456.468 601.193L454.813 600.673L453.168 600.118L451.535 599.528L449.913 598.902L448.304 598.24L446.71 597.542L445.131 596.808L443.569 596.038L442.024 595.232L440.498 594.39L438.991 593.513L437.506 592.6L436.042 591.652L434.601 590.67L433.183 589.653L431.79 588.603L430.423 587.519L429.083 586.403L427.77 585.255L426.485 584.075L425.229 582.865L424.002 581.625L422.806 580.357L421.641 579.06L420.508 577.736L419.408 576.385L418.34 575.009L417.306 573.608L416.306 572.184L415.34 570.737L414.409 569.268L413.514 567.778L412.654 566.269L411.831 564.74L411.044 563.194L410.294 561.631L409.582 560.051L408.907 558.457L408.27 556.849L407.672 555.227L407.112 553.594L406.592 551.949L406.11 550.294L405.668 548.629L405.266 546.957L404.903 545.277L404.58 543.591L404.297 541.9L404.053 540.205L403.849 538.507L403.684 536.808L403.557 535.107L403.47 533.407L403.421 531.709L403.409 530.013L403.435 528.32L403.497 526.633L403.596 524.95L403.73 523.275L403.898 521.607L404.101 519.947L404.337 518.298L404.604 516.658L404.904 515.03L405.233 513.414L405.592 511.811L405.979 510.221L406.393 508.645L406.834 507.085L407.3 505.54L407.789 504.011L408.301 502.499L408.835 501.004L409.389 499.526L409.963 498.067L410.554 496.625L411.162 495.202L411.786 493.797L412.424 492.411L413.075 491.044L413.738 489.696L414.412 488.367L415.095 487.057L415.786 485.765L416.484 484.492L417.188 483.238L417.896 482.001L418.608 480.783L419.323 479.581L420.039 478.397L420.757 477.23L421.473 476.079L422.189 474.943L422.903 473.823L423.614 472.717L424.322 471.626L425.027 470.548L425.727 469.483L426.422 468.43L427.112 467.389L427.797 466.359L428.476 465.34L429.15 464.33L429.817 463.33L430.479 462.339L431.134 461.355L431.784 460.38L432.428 459.411L433.067 458.449L433.7 457.494L434.328 456.544L434.951 455.599L435.57 454.659L436.185 453.723L436.796 452.792L437.404 451.865L438.009 450.941L438.612 450.02L439.213 449.102L439.813 448.187L440.412 447.275L441.01 446.365L441.609 445.458L442.209 444.554L442.811 443.652L443.416 442.753L444.023 441.858L444.635 440.965L445.251 440.076L445.873 439.191L446.502 438.31L447.137 437.434L447.78 436.563L448.432 435.699L449.093 434.84L449.764 433.989L450.445 433.146L451.137 432.311L451.841 431.486L452.557 430.67L453.286 429.865L454.027 429.072L454.782 428.291L455.551 427.523L456.333 426.77L457.129 426.03L457.939 425.306L458.764 424.599L459.602 423.908L460.455 423.235L461.321 422.579L462.201 421.943L463.095 421.326L464.001 420.728L464.92 420.151L465.851 419.593L466.793 419.057L467.746 418.54L468.71 418.045L469.683 417.569L470.664 417.114L471.654 416.678L472.65 416.261L473.654 415.863L474.662 415.483L475.676 415.12L476.693 414.774L477.714 414.443L478.738 414.127L479.763 413.824L480.79 413.533L481.818 413.254L482.845 412.984L483.873 412.724L484.9 412.471L485.926 412.224L486.951 411.982L487.974 411.744L488.996 411.509L490.016 411.274L491.035 411.04L492.052 410.804L493.068 410.566L494.083 410.325L495.098 410.079L496.112 409.827L497.126 409.569L498.14 409.305L499.156 409.032L500.174 408.751L501.194 408.462L502.217 408.163L503.244 407.855L504.276 407.538L505.312 407.211L506.355 406.874L507.405 406.529L508.462 406.176L509.527 405.814L510.601 405.444L511.685 405.068L512.779 404.686L513.885 404.298L515.001 403.905L516.13 403.509L517.271 403.111L518.426 402.711L519.594 402.31L520.775 401.911L521.971 401.513L523.18 401.118L524.405 400.729L525.643 400.345L526.897 399.968L528.165 399.6L529.447 399.242L530.744 398.895L532.055 398.562L533.379 398.242L534.717 397.938L536.068 397.651L537.431 397.383L538.807 397.134L540.194 396.906L541.591 396.7L542.999 396.518L544.416 396.361L545.841 396.229L547.274 396.124L548.714 396.048L550.159 395.999L551.61 395.981L553.064 395.993L554.521 396.037L555.98 396.111L557.441 396.219L558.901 396.358L560.361 396.53L561.819 396.736L563.275 396.974L564.727 397.245L566.176 397.55L567.619 397.887L569.057 398.257L570.488 398.659L571.912 399.094L573.329 399.56L574.738 400.057L576.137 400.586L577.528 401.145L578.909 401.733L580.279 402.352L581.639 402.999L582.988 403.675L584.326 404.378L585.652 405.109L586.966 405.866L588.268 406.65L589.557 407.459L590.834 408.293L592.098 409.151L593.349 410.034L594.586 410.94L595.809 411.87L597.019 412.822L598.215 413.796L599.397 414.791L600.564 415.809L601.716 416.847L602.853 417.906L603.975 418.985L605.081 420.085L606.171 421.204L607.244 422.343L608.301 423.501L609.34 424.678L610.362 425.874L611.365 427.088L612.35 428.321L613.315 429.572L614.262 430.84L615.188 432.126L616.094 433.429L616.979 434.749L617.844 436.085L618.686 437.437L619.507 438.804L620.305 440.187L621.081 441.585L621.834 442.998L622.563 444.424L623.269 445.865L623.951 447.318L624.609 448.784L625.243 450.263L625.852 451.753L626.436 453.255L626.995 454.767L627.529 456.29L628.038 457.823L628.521 459.366L628.979 460.917L629.412 462.476L629.819 464.044L630.201 465.619L630.558 467.201L630.889 468.789L631.194 470.384L631.475 471.984L631.73 473.589L631.961 475.198L632.166 476.812L632.346 478.429L632.502 480.05L632.632 481.674L632.738 483.3L632.819 484.928L632.875 486.557L632.906 488.188L632.913 489.82L632.894 491.452L632.851 493.084L632.783 494.715L632.69 496.346L632.573 497.975L632.43 499.603L632.262 501.229L632.07 502.852L631.852 504.472L631.609 506.088L631.342 507.701L631.049 509.31L630.731 510.913L630.388 512.512L630.02 514.105L629.627 515.692L629.208 517.272L628.765 518.845L628.297 520.411L627.803 521.968L627.285 523.518L626.742 525.058L626.174 526.589L625.581 528.11L624.964 529.621L624.323 531.121L623.658 532.61L622.969 534.087L622.257 535.553L621.522 537.006L620.764 538.447L619.983 539.874L619.181 541.289L618.357 542.69L617.513 544.077L616.647 545.45L615.762 546.809L614.856 548.153L613.931 549.483L612.987 550.798L612.025 552.097L611.044 553.382L610.045 554.65L609.028 555.903L607.994 557.139L606.942 558.36L605.874 559.563L604.79 560.75L603.689 561.92L602.573 563.073L601.44 564.208L600.293 565.326L599.131 566.426L597.954 567.508L596.763 568.572L595.558 569.618L594.339 570.645L593.107 571.654L591.862 572.643L590.604 573.614L589.334 574.566L588.052 575.499L586.758 576.413L585.453 577.307L584.138 578.183L582.812 579.039L581.476 579.876L580.13 580.694Z" fill="url(#paint0_linear_377_2747)"/>
<path fill-rule="evenodd" clip-rule="evenodd" d="M43.1883 112.573L44.0616 111.265L44.9511 109.97L45.8563 108.689L46.7769 107.421L47.7124 106.166L48.6622 104.924L49.6259 103.696L50.6031 102.481L51.5932 101.279L52.5958 100.09L53.6103 98.9134L54.6363 97.7494L55.6734 96.5977L56.7211 95.458L57.7788 94.3301L58.8463 93.2137L59.9231 92.1084L61.0087 91.014L62.1028 89.93L63.2052 88.8562L64.3153 87.7922L65.433 86.7375L66.558 85.6919L67.69 84.6549L68.8289 83.6261L69.9745 82.6052L71.1265 81.5919L72.285 80.5856L73.4498 79.5862L74.6209 78.5932L75.7984 77.6064L76.9822 76.6254L78.1724 75.65L79.3691 74.6799L80.5724 73.715L81.7825 72.755L82.9997 71.7998L84.224 70.8494L85.4558 69.9037L86.6953 68.9625L87.9428 68.026L89.1986 67.0943L90.4631 66.1675L91.7366 65.2456L93.0194 64.329L94.3118 63.4179L95.6144 62.5126L96.9273 61.6135L98.251 60.721L99.5858 59.8354L100.932 58.9574L102.29 58.0874L103.66 57.2261L105.043 56.3741L106.438 55.5321L107.847 54.7009L109.269 53.8811L110.704 53.0736L112.153 52.2792L113.615 51.4989L115.092 50.7336L116.583 49.9842L118.087 49.2516L119.606 48.5369L121.139 47.8412L122.686 47.1653L124.247 46.5105L125.822 45.8778L127.41 45.2682L129.011 44.6829L130.626 44.1229L132.253 43.5892L133.892 43.083L135.543 42.6053L137.205 42.1571L138.878 41.7395L140.56 41.3535L142.253 40.9999L143.954 40.6798L145.662 40.3941L147.379 40.1434L149.101 39.9288L150.829 39.7509L152.562 39.6103L154.298 39.5078L156.038 39.444L157.779 39.4193L159.521 39.4342L161.262 39.4891L163.003 39.5845L164.741 39.7204L166.476 39.8972L168.206 40.1151L169.931 40.374L171.649 40.6741L173.36 41.0153L175.062 41.3975L176.755 41.8205L178.437 42.2842L180.107 42.7884L181.764 43.3326L183.407 43.9165L185.035 44.5398L186.648 45.2019L188.244 45.9024L189.822 46.6408L191.382 47.4165L192.922 48.2289L194.442 49.0774L195.941 49.9613L197.417 50.8801L198.871 51.8329L200.301 52.8192L201.707 53.8382L203.087 54.8892L204.442 55.9716L205.77 57.0845L207.07 58.2273L208.343 59.3994L209.586 60.5999L210.8 61.8282L211.984 63.0836L213.137 64.3652L214.258 65.6724L215.347 67.0041L216.404 68.3595L217.428 69.7377L218.418 71.1376L219.374 72.5584L220.296 73.9988L221.183 75.4579L222.035 76.9346L222.853 78.4277L223.635 79.9362L224.383 81.4588L225.095 82.9943L225.772 84.5417L226.414 86.0996L227.022 87.667L227.595 89.2425L228.133 90.8251L228.638 92.4135L229.109 94.0064L229.547 95.6029L229.953 97.2017L230.326 98.8016L230.668 100.402L230.98 102.001L231.261 103.597L231.513 105.191L231.736 106.781L231.932 108.365L232.101 109.944L232.244 111.515L232.362 113.079L232.456 114.635L232.526 116.181L232.575 117.717L232.602 119.242L232.61 120.756L232.598 122.258L232.569 123.748L232.524 125.225L232.463 126.688L232.387 128.138L232.298 129.574L232.197 130.995L232.085 132.402L231.964 133.795L231.833 135.172L231.694 136.535L231.549 137.884L231.398 139.217L231.242 140.536L231.081 141.841L230.918 143.132L230.752 144.409L230.584 145.672L230.415 146.922L230.246 148.16L230.077 149.385L229.908 150.598L229.74 151.8L229.573 152.991L229.408 154.171L229.245 155.341L229.084 156.502L228.925 157.654L228.767 158.798L228.613 159.934L228.46 161.062L228.309 162.184L228.16 163.299L228.013 164.409L227.867 165.513L227.722 166.613L227.579 167.708L227.436 168.799L227.293 169.887L227.151 170.971L227.008 172.053L226.864 173.132L226.718 174.209L226.571 175.285L226.42 176.358L226.267 177.43L226.109 178.501L225.946 179.571L225.777 180.639L225.601 181.707L225.418 182.773L225.226 183.838L225.025 184.902L224.814 185.963L224.592 187.023L224.358 188.081L224.11 189.137L223.85 190.189L223.574 191.239L223.284 192.284L222.977 193.326L222.654 194.362L222.313 195.394L221.955 196.419L221.578 197.438L221.182 198.449L220.767 199.453L220.331 200.449L219.876 201.435L219.401 202.412L218.906 203.379L218.39 204.334L217.853 205.278L217.297 206.21L216.72 207.129L216.124 208.035L215.508 208.928L214.874 209.807L214.221 210.672L213.552 211.523L212.866 212.36L212.164 213.182L211.447 213.99L210.716 214.784L209.973 215.565L209.218 216.332L208.452 217.086L207.676 217.827L206.892 218.557L206.1 219.275L205.301 219.983L204.497 220.681L203.688 221.37L202.876 222.051L202.061 222.725L201.244 223.393L200.426 224.056L199.608 224.715L198.79 225.371L197.973 226.025L197.157 226.679L196.343 227.333L195.532 227.989L194.722 228.647L193.916 229.309L193.111 229.976L192.31 230.649L191.511 231.328L190.715 232.015L189.92 232.71L189.127 233.414L188.335 234.127L187.544 234.851L186.753 235.585L185.961 236.329L185.168 237.085L184.373 237.852L183.575 238.63L182.772 239.418L181.965 240.218L181.152 241.027L180.333 241.847L179.506 242.676L178.671 243.515L177.826 244.362L176.971 245.217L176.106 246.078L175.228 246.946L174.337 247.82L173.433 248.697L172.515 249.578L171.582 250.461L170.633 251.345L169.668 252.228L168.685 253.111L167.686 253.99L166.669 254.866L165.633 255.735L164.579 256.599L163.506 257.453L162.414 258.299L161.302 259.133L160.172 259.954L159.022 260.762L157.852 261.554L156.663 262.33L155.456 263.087L154.229 263.825L152.984 264.542L151.721 265.236L150.44 265.907L149.141 266.554L147.826 267.175L146.495 267.769L145.148 268.335L143.786 268.873L142.41 269.381L141.02 269.86L139.618 270.309L138.203 270.727L136.777 271.113L135.34 271.468L133.894 271.791L132.438 272.082L130.974 272.342L129.502 272.569L128.024 272.765L126.539 272.929L125.048 273.061L123.553 273.161L122.054 273.23L120.55 273.269L119.044 273.277L117.536 273.254L116.025 273.202L114.513 273.119L113.001 273.008L111.487 272.868L109.974 272.699L108.462 272.503L106.951 272.278L105.441 272.026L103.933 271.747L102.427 271.442L100.923 271.11L99.423 270.752L97.9261 270.368L96.433 269.959L94.944 269.524L93.4596 269.065L91.9803 268.58L90.5063 268.07L89.0382 267.535L87.5765 266.976L86.1216 266.392L84.674 265.783L83.2342 265.149L81.8027 264.491L80.3801 263.809L78.9668 263.102L77.5633 262.37L76.1702 261.615L74.788 260.835L73.4172 260.031L72.0583 259.203L70.7119 258.351L69.3783 257.475L68.0582 256.576L66.752 255.654L65.4601 254.709L64.1832 253.741L62.9215 252.751L61.6757 251.738L60.446 250.703L59.2329 249.646L58.0369 248.568L56.8582 247.47L55.6973 246.35L54.5545 245.21L53.4301 244.051L52.3244 242.872L51.2377 241.673L50.1702 240.457L49.1222 239.222L48.0939 237.969L47.0854 236.699L46.097 235.412L45.1288 234.109L44.1809 232.789L43.2534 231.455L42.3466 230.105L41.4604 228.741L40.5951 227.362L39.7508 225.97L38.9277 224.565L38.126 223.146L37.3456 221.715L36.587 220.271L35.8502 218.816L35.1354 217.349L34.4427 215.871L33.7725 214.383L33.1248 212.883L32.4999 211.374L31.898 209.856L31.3192 208.328L30.7639 206.791L30.2321 205.245L29.7241 203.691L29.2401 202.13L28.7804 200.561L28.3452 198.985L27.9346 197.403L27.5488 195.814L27.1882 194.219L26.8528 192.619L26.5429 191.014L26.2587 189.405L26.0002 187.791L25.7678 186.174L25.5615 184.553L25.3814 182.93L25.2276 181.304L25.1003 179.677L24.9994 178.048L24.925 176.419L24.877 174.789L24.8554 173.159L24.8601 171.529L24.891 169.901L24.9478 168.274L25.0303 166.649L25.1383 165.027L25.2715 163.407L25.4296 161.791L25.6123 160.178L25.8194 158.57L26.0507 156.965L26.3058 155.366L26.5847 153.772L26.887 152.183L27.2126 150.6L27.5613 149.024L27.9328 147.454L28.3269 145.891L28.7436 144.335L29.1825 142.787L29.6436 141.247L30.1266 139.715L30.6313 138.192L31.1576 136.677L31.7052 135.172L32.2741 133.676L32.8639 132.191L33.4745 130.715L34.1056 129.25L34.7571 127.795L35.4286 126.351L36.12 124.919L36.831 123.498L37.5613 122.089L38.3106 120.692L39.0786 119.307L39.8651 117.935L40.6696 116.575L41.4919 115.228L42.3316 113.894L43.1883 112.573Z" fill="url(#paint1_linear_377_2747)"/>
<mask id="mask0_377_2747" style="mask-type:alpha" maskUnits="userSpaceOnUse" x="203" y="134" width="466" height="465">
<ellipse cx="435.767" cy="366.752" rx="232.262" ry="232.216" fill="#D9D9D9"/>
</mask>
<g mask="url(#mask0_377_2747)">
<ellipse cx="209.769" cy="151.786" rx="6.2643" ry="6.26305" fill="#FFE7C1"/>
<ellipse cx="209.769" cy="191.87" rx="6.2643" ry="6.26305" fill="#FFE7C1"/>
<ellipse cx="209.769" cy="231.953" rx="6.2643" ry="6.26305" fill="#FFE7C1"/>
<ellipse cx="209.769" cy="272.036" rx="6.2643" ry="6.26305" fill="#FFE7C1"/>
<ellipse cx="209.769" cy="312.12" rx="6.2643" ry="6.26305" fill="#FFE7C1"/>
<ellipse cx="209.769" cy="352.203" rx="6.2643" ry="6.26305" fill="#FFE7C1"/>
<ellipse cx="209.769" cy="392.287" rx="6.2643" ry="6.26305" fill="#FFE7C1"/>
<ellipse cx="209.769" cy="432.37" rx="6.2643" ry="6.26305" fill="#FFE7C1"/>
<ellipse cx="209.769" cy="472.454" rx="6.2643" ry="6.26305" fill="#FFE7C1"/>
<ellipse cx="209.769" cy="512.538" rx="6.2643" ry="6.26305" fill="#FFE7C1"/>
<ellipse cx="209.769" cy="552.621" rx="6.2643" ry="6.26305" fill="#FFE7C1"/>
<ellipse cx="209.769" cy="592.705" rx="6.2643" ry="6.26305" fill="#FFE7C1"/>
<ellipse cx="249.861" cy="151.786" rx="6.2643" ry="6.26305" fill="#FFE7C1"/>
<ellipse cx="249.861" cy="191.87" rx="6.2643" ry="6.26305" fill="#FFE7C1"/>
<ellipse cx="249.861" cy="231.953" rx="6.2643" ry="6.26305" fill="#FFE7C1"/>
<ellipse cx="249.861" cy="272.036" rx="6.2643" ry="6.26305" fill="#FFE7C1"/>
<ellipse cx="249.861" cy="312.12" rx="6.2643" ry="6.26305" fill="#FFE7C1"/>
<ellipse cx="249.861" cy="352.203" rx="6.2643" ry="6.26305" fill="#FFE7C1"/>
<ellipse cx="249.861" cy="392.287" rx="6.2643" ry="6.26305" fill="#FFE7C1"/>
<ellipse cx="249.861" cy="432.37" rx="6.2643" ry="6.26305" fill="#FFE7C1"/>
<ellipse cx="249.861" cy="472.454" rx="6.2643" ry="6.26305" fill="#FFE7C1"/>
<ellipse cx="249.861" cy="512.538" rx="6.2643" ry="6.26305" fill="#FFE7C1"/>
<ellipse cx="249.861" cy="552.621" rx="6.2643" ry="6.26305" fill="#FFE7C1"/>
<ellipse cx="249.861" cy="592.705" rx="6.2643" ry="6.26305" fill="#FFE7C1"/>
<ellipse cx="289.952" cy="151.786" rx="6.2643" ry="6.26305" fill="#FFE7C1"/>
<ellipse cx="289.952" cy="191.87" rx="6.2643" ry="6.26305" fill="#FFE7C1"/>
<ellipse cx="289.952" cy="231.953" rx="6.2643" ry="6.26305" fill="#FFE7C1"/>
<ellipse cx="289.952" cy="272.036" rx="6.2643" ry="6.26305" fill="#FFE7C1"/>
<ellipse cx="289.952" cy="312.12" rx="6.2643" ry="6.26305" fill="#FFE7C1"/>
<ellipse cx="289.952" cy="352.203" rx="6.2643" ry="6.26305" fill="#FFE7C1"/>
<ellipse cx="289.952" cy="392.287" rx="6.2643" ry="6.26305" fill="#FFE7C1"/>
<ellipse cx="289.952" cy="432.37" rx="6.2643" ry="6.26305" fill="#FFE7C1"/>
<ellipse cx="289.952" cy="472.454" rx="6.2643" ry="6.26305" fill="#FFE7C1"/>
<ellipse cx="289.952" cy="512.538" rx="6.2643" ry="6.26305" fill="#FFE7C1"/>
<ellipse cx="289.952" cy="552.621" rx="6.2643" ry="6.26305" fill="#FFE7C1"/>
<ellipse cx="289.952" cy="592.705" rx="6.2643" ry="6.26305" fill="#FFE7C1"/>
<ellipse cx="330.044" cy="151.786" rx="6.2643" ry="6.26305" fill="#FFE7C1"/>
<ellipse cx="330.044" cy="191.87" rx="6.2643" ry="6.26305" fill="#FFE7C1"/>
<ellipse cx="330.044" cy="231.953" rx="6.2643" ry="6.26305" fill="#FFE7C1"/>
<ellipse cx="330.044" cy="272.036" rx="6.2643" ry="6.26305" fill="#FFE7C1"/>
<ellipse cx="330.044" cy="312.12" rx="6.2643" ry="6.26305" fill="#FFE7C1"/>
<ellipse cx="330.044" cy="352.203" rx="6.2643" ry="6.26305" fill="#FFE7C1"/>
<ellipse cx="330.044" cy="392.287" rx="6.2643" ry="6.26305" fill="#FFE7C1"/>
<ellipse cx="330.044" cy="432.37" rx="6.2643" ry="6.26305" fill="#FFE7C1"/>
<ellipse cx="330.044" cy="472.454" rx="6.2643" ry="6.26305" fill="#FFE7C1"/>
<ellipse cx="330.044" cy="512.538" rx="6.2643" ry="6.26305" fill="#FFE7C1"/>
<ellipse cx="330.044" cy="552.621" rx="6.2643" ry="6.26305" fill="#FFE7C1"/>
<ellipse cx="330.044" cy="592.705" rx="6.2643" ry="6.26305" fill="#FFE7C1"/>
<ellipse cx="370.135" cy="151.786" rx="6.2643" ry="6.26305" fill="#FFE7C1"/>
<ellipse cx="370.135" cy="191.87" rx="6.2643" ry="6.26305" fill="#FFE7C1"/>
<ellipse cx="370.135" cy="231.953" rx="6.2643" ry="6.26305" fill="#FFE7C1"/>
<ellipse cx="370.135" cy="272.036" rx="6.2643" ry="6.26305" fill="#FFE7C1"/>
<ellipse cx="370.135" cy="312.12" rx="6.2643" ry="6.26305" fill="#FFE7C1"/>
<ellipse cx="370.135" cy="352.203" rx="6.2643" ry="6.26305" fill="#FFE7C1"/>
<ellipse cx="370.135" cy="392.287" rx="6.2643" ry="6.26305" fill="#FFE7C1"/>
<ellipse cx="370.135" cy="432.37" rx="6.2643" ry="6.26305" fill="#FFE7C1"/>
<ellipse cx="370.135" cy="472.454" rx="6.2643" ry="6.26305" fill="#FFE7C1"/>
<ellipse cx="370.135" cy="512.538" rx="6.2643" ry="6.26305" fill="#FFE7C1"/>
<ellipse cx="370.135" cy="552.621" rx="6.2643" ry="6.26305" fill="#FFE7C1"/>
<ellipse cx="370.135" cy="592.705" rx="6.2643" ry="6.26305" fill="#FFE7C1"/>
<ellipse cx="410.227" cy="151.786" rx="6.2643" ry="6.26305" fill="#FFE7C1"/>
<ellipse cx="410.227" cy="191.87" rx="6.2643" ry="6.26305" fill="#FFE7C1"/>
<ellipse cx="410.227" cy="231.953" rx="6.2643" ry="6.26305" fill="#FFE7C1"/>
<ellipse cx="410.227" cy="272.036" rx="6.2643" ry="6.26305" fill="#FFE7C1"/>
<ellipse cx="410.227" cy="312.12" rx="6.2643" ry="6.26305" fill="#FFE7C1"/>
<ellipse cx="410.227" cy="352.203" rx="6.2643" ry="6.26305" fill="#FFE7C1"/>
<ellipse cx="410.227" cy="392.287" rx="6.2643" ry="6.26305" fill="#FFE7C1"/>
<ellipse cx="410.227" cy="432.37" rx="6.2643" ry="6.26305" fill="#FFE7C1"/>
<ellipse cx="410.227" cy="472.454" rx="6.2643" ry="6.26305" fill="#FFE7C1"/>
<ellipse cx="410.227" cy="512.538" rx="6.2643" ry="6.26305" fill="#FFE7C1"/>
<ellipse cx="410.227" cy="552.621" rx="6.2643" ry="6.26305" fill="#FFE7C1"/>
<ellipse cx="410.227" cy="592.705" rx="6.2643" ry="6.26305" fill="#FFE7C1"/>
<ellipse cx="450.318" cy="151.786" rx="6.2643" ry="6.26305" fill="#FFE7C1"/>
<ellipse cx="450.318" cy="191.87" rx="6.2643" ry="6.26305" fill="#FFE7C1"/>
<ellipse cx="450.318" cy="231.953" rx="6.2643" ry="6.26305" fill="#FFE7C1"/>
<ellipse cx="450.318" cy="272.036" rx="6.2643" ry="6.26305" fill="#FFE7C1"/>
<ellipse cx="450.318" cy="312.12" rx="6.2643" ry="6.26305" fill="#FFE7C1"/>
<ellipse cx="450.318" cy="352.203" rx="6.2643" ry="6.26305" fill="#FFE7C1"/>
<ellipse cx="450.318" cy="392.287" rx="6.2643" ry="6.26305" fill="#FFE7C1"/>
<ellipse cx="450.318" cy="432.37" rx="6.2643" ry="6.26305" fill="#FFE7C1"/>
<ellipse cx="450.318" cy="472.454" rx="6.2643" ry="6.26305" fill="#FFE7C1"/>
<ellipse cx="450.318" cy="512.538" rx="6.2643" ry="6.26305" fill="#FFE7C1"/>
<ellipse cx="450.318" cy="552.621" rx="6.2643" ry="6.26305" fill="#FFE7C1"/>
<ellipse cx="450.318" cy="592.705" rx="6.2643" ry="6.26305" fill="#FFE7C1"/>
<ellipse cx="490.41" cy="151.786" rx="6.2643" ry="6.26305" fill="#FFE7C1"/>
<ellipse cx="490.41" cy="191.87" rx="6.2643" ry="6.26305" fill="#FFE7C1"/>
<ellipse cx="490.41" cy="231.953" rx="6.2643" ry="6.26305" fill="#FFE7C1"/>
<ellipse cx="490.41" cy="272.036" rx="6.2643" ry="6.26305" fill="#FFE7C1"/>
<ellipse cx="490.41" cy="312.12" rx="6.2643" ry="6.26305" fill="#FFE7C1"/>
<ellipse cx="490.41" cy="352.203" rx="6.2643" ry="6.26305" fill="#FFE7C1"/>
<ellipse cx="490.41" cy="392.287" rx="6.2643" ry="6.26305" fill="#FFE7C1"/>
<ellipse cx="490.41" cy="432.37" rx="6.2643" ry="6.26305" fill="#FFE7C1"/>
<ellipse cx="490.41" cy="472.454" rx="6.2643" ry="6.26305" fill="#FFE7C1"/>
<ellipse cx="490.41" cy="512.538" rx="6.2643" ry="6.26305" fill="#FFE7C1"/>
<ellipse cx="490.41" cy="552.621" rx="6.2643" ry="6.26305" fill="#FFE7C1"/>
<ellipse cx="490.41" cy="592.705" rx="6.2643" ry="6.26305" fill="#FFE7C1"/>
<ellipse cx="530.501" cy="151.786" rx="6.2643" ry="6.26305" fill="#FFE7C1"/>
<ellipse cx="530.501" cy="191.87" rx="6.2643" ry="6.26305" fill="#FFE7C1"/>
<ellipse cx="530.501" cy="231.953" rx="6.2643" ry="6.26305" fill="#FFE7C1"/>
<ellipse cx="530.501" cy="272.036" rx="6.2643" ry="6.26305" fill="#FFE7C1"/>
<ellipse cx="530.501" cy="312.12" rx="6.2643" ry="6.26305" fill="#FFE7C1"/>
<ellipse cx="530.501" cy="352.203" rx="6.2643" ry="6.26305" fill="#FFE7C1"/>
<ellipse cx="530.501" cy="392.287" rx="6.2643" ry="6.26305" fill="#FFE7C1"/>
<ellipse cx="530.501" cy="432.37" rx="6.2643" ry="6.26305" fill="#FFE7C1"/>
<ellipse cx="530.501" cy="472.454" rx="6.2643" ry="6.26305" fill="#FFE7C1"/>
<ellipse cx="530.501" cy="512.538" rx="6.2643" ry="6.26305" fill="#FFE7C1"/>
<ellipse cx="530.501" cy="552.621" rx="6.2643" ry="6.26305" fill="#FFE7C1"/>
<ellipse cx="530.501" cy="592.705" rx="6.2643" ry="6.26305" fill="#FFE7C1"/>
<ellipse cx="570.593" cy="151.786" rx="6.2643" ry="6.26305" fill="#FFE7C1"/>
<ellipse cx="570.593" cy="191.87" rx="6.2643" ry="6.26305" fill="#FFE7C1"/>
<ellipse cx="570.593" cy="231.953" rx="6.2643" ry="6.26305" fill="#FFE7C1"/>
<ellipse cx="570.593" cy="272.036" rx="6.2643" ry="6.26305" fill="#FFE7C1"/>
<ellipse cx="570.593" cy="312.12" rx="6.2643" ry="6.26305" fill="#FFE7C1"/>
<ellipse cx="570.593" cy="352.203" rx="6.2643" ry="6.26305" fill="#FFE7C1"/>
<ellipse cx="570.593" cy="392.287" rx="6.2643" ry="6.26305" fill="#FFE7C1"/>
<ellipse cx="570.593" cy="432.37" rx="6.2643" ry="6.26305" fill="#FFE7C1"/>
<ellipse cx="570.593" cy="472.454" rx="6.2643" ry="6.26305" fill="#FFE7C1"/>
<ellipse cx="570.593" cy="512.538" rx="6.2643" ry="6.26305" fill="#FFE7C1"/>
<ellipse cx="570.593" cy="552.621" rx="6.2643" ry="6.26305" fill="#FFE7C1"/>
<ellipse cx="570.593" cy="592.705" rx="6.2643" ry="6.26305" fill="#FFE7C1"/>
<ellipse cx="610.684" cy="151.786" rx="6.2643" ry="6.26305" fill="#FFE7C1"/>
<ellipse cx="610.684" cy="191.87" rx="6.2643" ry="6.26305" fill="#FFE7C1"/>
<ellipse cx="610.684" cy="231.953" rx="6.2643" ry="6.26305" fill="#FFE7C1"/>
<ellipse cx="610.684" cy="272.036" rx="6.2643" ry="6.26305" fill="#FFE7C1"/>
<ellipse cx="610.684" cy="312.12" rx="6.2643" ry="6.26305" fill="#FFE7C1"/>
<ellipse cx="610.684" cy="352.203" rx="6.2643" ry="6.26305" fill="#FFE7C1"/>
<ellipse cx="610.684" cy="392.287" rx="6.2643" ry="6.26305" fill="#FFE7C1"/>
<ellipse cx="610.684" cy="432.37" rx="6.2643" ry="6.26305" fill="#FFE7C1"/>
<ellipse cx="610.684" cy="472.454" rx="6.2643" ry="6.26305" fill="#FFE7C1"/>
<ellipse cx="610.684" cy="512.538" rx="6.2643" ry="6.26305" fill="#FFE7C1"/>
<ellipse cx="610.684" cy="552.621" rx="6.2643" ry="6.26305" fill="#FFE7C1"/>
<ellipse cx="610.684" cy="592.705" rx="6.2643" ry="6.26305" fill="#FFE7C1"/>
<ellipse cx="650.776" cy="151.786" rx="6.2643" ry="6.26305" fill="#FFE7C1"/>
<ellipse cx="650.776" cy="191.87" rx="6.2643" ry="6.26305" fill="#FFE7C1"/>
<ellipse cx="650.776" cy="231.953" rx="6.2643" ry="6.26305" fill="#FFE7C1"/>
<ellipse cx="650.776" cy="272.036" rx="6.2643" ry="6.26305" fill="#FFE7C1"/>
<ellipse cx="650.776" cy="312.12" rx="6.2643" ry="6.26305" fill="#FFE7C1"/>
<ellipse cx="650.776" cy="352.203" rx="6.2643" ry="6.26305" fill="#FFE7C1"/>
<ellipse cx="650.776" cy="392.287" rx="6.2643" ry="6.26305" fill="#FFE7C1"/>
<ellipse cx="650.776" cy="432.37" rx="6.2643" ry="6.26305" fill="#FFE7C1"/>
<ellipse cx="650.776" cy="472.454" rx="6.2643" ry="6.26305" fill="#FFE7C1"/>
<ellipse cx="650.776" cy="512.538" rx="6.2643" ry="6.26305" fill="#FFE7C1"/>
<ellipse cx="650.776" cy="552.621" rx="6.2643" ry="6.26305" fill="#FFE7C1"/>
<ellipse cx="650.776" cy="592.705" rx="6.2643" ry="6.26305" fill="#FFE7C1"/>
</g>
<defs>
<linearGradient id="paint0_linear_377_2747" x1="651.948" y1="273.255" x2="524.109" y2="121.452" gradientUnits="userSpaceOnUse">
<stop stop-color="#B6F1D8"/>
<stop offset="1" stop-color="#6E9112"/>
</linearGradient>
<linearGradient id="paint1_linear_377_2747" x1="-60.8914" y1="55.1016" x2="187.107" y2="239.75" gradientUnits="userSpaceOnUse">
<stop stop-color="#E2F0E7"/>
<stop offset="1" stop-color="#FFE1BB"/>
</linearGradient>
</defs>
</svg>
