<svg width="40" height="40" viewBox="0 0 40 40" fill="none" xmlns="http://www.w3.org/2000/svg">
<g id="picture iconka_8">
<g id="Group 42">
<path id="Vector" d="M32.4999 20.9531L19.9999 33.3331L7.49993 20.9531C6.67544 20.1508 6.026 19.1865 5.59251 18.1209C5.15902 17.0552 4.95087 15.9114 4.98116 14.7614C5.01145 13.6113 5.27954 12.48 5.76853 11.4387C6.25752 10.3974 6.95682 9.46856 7.82241 8.71077C8.68799 7.95298 9.70111 7.38262 10.798 7.03561C11.8948 6.68859 13.0516 6.57245 14.1955 6.69448C15.3395 6.8165 16.4458 7.17407 17.4447 7.74465C18.4437 8.31523 19.3137 9.08647 19.9999 10.0098C20.6892 9.09318 21.5602 8.32867 22.5584 7.76415C23.5567 7.19962 24.6608 6.84722 25.8015 6.72901C26.9422 6.61079 28.0951 6.7293 29.1879 7.07713C30.2807 7.42495 31.29 7.9946 32.1525 8.75041C33.0151 9.50623 33.7123 10.4319 34.2006 11.4696C34.689 12.5073 34.9578 13.6346 34.9904 14.781C35.0231 15.9274 34.8187 17.0681 34.3902 18.1319C33.9616 19.1957 33.3181 20.1595 32.4999 20.9631" stroke="#001922" stroke-width="1.4" stroke-linecap="round" stroke-linejoin="round"/>
<path id="Vector_2" d="M20 10L14.5117 15.4883C14.1992 15.8009 14.0237 16.2247 14.0237 16.6667C14.0237 17.1086 14.1992 17.5325 14.5117 17.845L15.4167 18.75C16.5667 19.9 18.4333 19.9 19.5833 18.75L21.25 17.0833C22.2446 16.0888 23.5935 15.53 25 15.53C26.4065 15.53 27.7554 16.0888 28.75 17.0833L32.5 20.8333" stroke="#001922" stroke-width="1.4" stroke-linecap="round" stroke-linejoin="round"/>
<path id="Vector_3" d="M20.8333 25.833L24.1666 29.1663" stroke="#001922" stroke-width="1.4" stroke-linecap="round" stroke-linejoin="round"/>
<path id="Vector_4" d="M25 21.667L28.3333 25.0003" stroke="#001922" stroke-width="1.4" stroke-linecap="round" stroke-linejoin="round"/>
</g>
</g>
</svg>
