<svg width="40" height="40" viewBox="0 0 40 40" fill="none" xmlns="http://www.w3.org/2000/svg">
<g id="picture iconka_9">
<g id="Group 43">
<path id="Vector" d="M18.3335 10C18.3335 11.3261 19.2115 12.5979 20.7743 13.5355C22.3371 14.4732 24.4567 15 26.6668 15C28.877 15 30.9966 14.4732 32.5594 13.5355C34.1222 12.5979 35.0002 11.3261 35.0002 10C35.0002 8.67392 34.1222 7.40215 32.5594 6.46447C30.9966 5.52678 28.877 5 26.6668 5C24.4567 5 22.3371 5.52678 20.7743 6.46447C19.2115 7.40215 18.3335 8.67392 18.3335 10Z" stroke="#001922" stroke-width="1.4" stroke-linecap="round" stroke-linejoin="round"/>
<path id="Vector_2" d="M18.3335 10V16.6667C18.3335 19.4283 22.0652 21.6667 26.6668 21.6667C31.2685 21.6667 35.0002 19.4283 35.0002 16.6667V10" stroke="#001922" stroke-width="1.4" stroke-linecap="round" stroke-linejoin="round"/>
<path id="Vector_3" d="M18.3335 16.667V23.3337C18.3335 26.0953 22.0652 28.3337 26.6668 28.3337C31.2685 28.3337 35.0002 26.0953 35.0002 23.3337V16.667" stroke="#001922" stroke-width="1.4" stroke-linecap="round" stroke-linejoin="round"/>
<path id="Vector_4" d="M18.3335 23.333V29.9997C18.3335 32.7613 22.0652 34.9997 26.6668 34.9997C31.2685 34.9997 35.0002 32.7613 35.0002 29.9997V23.333" stroke="#001922" stroke-width="1.4" stroke-linecap="round" stroke-linejoin="round"/>
<path id="Vector_5" d="M11.6667 15H7.5C6.83696 15 6.20107 15.2634 5.73223 15.7322C5.26339 16.2011 5 16.837 5 17.5C5 18.163 5.26339 18.7989 5.73223 19.2678C6.20107 19.7366 6.83696 20 7.5 20H9.16667C9.82971 20 10.4656 20.2634 10.9344 20.7322C11.4033 21.2011 11.6667 21.837 11.6667 22.5C11.6667 23.163 11.4033 23.7989 10.9344 24.2678C10.4656 24.7366 9.82971 25 9.16667 25H5" stroke="#001922" stroke-width="1.4" stroke-linecap="round" stroke-linejoin="round"/>
<path id="Vector_6" d="M8.3335 24.9997V26.6663M8.3335 13.333V14.9997" stroke="#001922" stroke-width="1.4" stroke-linecap="round" stroke-linejoin="round"/>
</g>
</g>
</svg>
