<svg width="76" height="76" viewBox="0 0 76 76" fill="none" xmlns="http://www.w3.org/2000/svg">
<circle cx="38" cy="38" r="38" fill="#FEF4DB"/>
<path d="M29.7901 43.5C29.5088 43.6354 28.2537 43.3069 27.6055 42.75C26.9573 42.1931 26.5713 41.5625 26.5713 40.8438V32.9063C26.5714 32.2812 26.5446 31.6875 27.6058 30.5938C28.4672 29.7059 29.6182 29.599 30.0401 29.5625H33.8213" stroke="#001922" stroke-width="1.4" stroke-linecap="round"/>
<path d="M37.5673 43.5C37.8486 43.6354 39.1037 43.3069 39.7519 42.75C40.4001 42.1931 40.7861 41.5625 40.7861 40.8438V32.9063C40.786 32.2812 40.8129 31.6875 39.7517 30.5938C38.8902 29.7059 37.7392 29.599 37.3173 29.5625H33.5361" stroke="#001922" stroke-width="1.4" stroke-linecap="round"/>
<path d="M29.9814 35.6875V53.7839C29.9814 54.156 30.0054 54.5376 30.1866 54.8626C30.4503 55.3356 30.9596 55.8438 31.8061 55.8438C32.5857 55.8438 33.1059 55.4128 33.4121 54.9753C33.6811 54.591 33.7236 54.1057 33.7236 53.6366V45.0625" stroke="#001922" stroke-width="1.4" stroke-linecap="round"/>
<path d="M37.4658 35.6875V53.7839C37.4658 54.156 37.4418 54.5376 37.2606 54.8626C36.9969 55.3356 36.4877 55.8438 35.6411 55.8438C34.8615 55.8438 34.3414 55.4128 34.0352 54.9753C33.7662 54.591 33.7236 54.1057 33.7236 53.6366V45.0625" stroke="#001922" stroke-width="1.4" stroke-linecap="round"/>
<path d="M42.5439 23.4998C44.0648 23.3956 47.5689 23.8498 49.4189 26.4998C51.7314 29.8123 50.6689 33.6873 49.7314 34.9373C48.7939 36.1873 47.8408 36.7966 47.0908 38.4216C46.6689 39.3357 46.7939 41.1873 46.4971 41.1873C46.2002 41.1873 45.2314 41.1873 45.2314 41.1873C45.2314 41.1873 45.2314 41.1873 45.2314 41.1873H42.5439" stroke="#001922" stroke-width="1.4" stroke-linecap="round"/>
<path d="M42.9814 17.4375V19.75" stroke="#001922" stroke-width="1.4" stroke-linecap="round"/>
<path d="M53.2671 21.7902L51.6955 23.4865" stroke="#001922" stroke-width="1.4" stroke-linecap="round"/>
<path d="M56.8867 30.8428L54.576 30.934" stroke="#001922" stroke-width="1.4" stroke-linecap="round"/>
<path d="M42.4189 44.0938H46.2939" stroke="#001922" stroke-width="1.4" stroke-linecap="round"/>
<path d="M42.2939 46.8438H45.3877" stroke="#001922" stroke-width="1.4" stroke-linecap="round"/>
<circle cx="33.6846" cy="23.8125" r="3.65625" stroke="#001922" stroke-width="1.4" stroke-linecap="round"/>
</svg>
