<svg width="76" height="76" viewBox="0 0 76 76" fill="none" xmlns="http://www.w3.org/2000/svg">
<g id="iconka_3">
<circle id="Ellipse 18" cx="38" cy="38" r="38" fill="#E4E0FE"/>
<g id="picture_icon3">
<path id="Ellipse 20" d="M44.9884 54.3968C45.9929 55.3218 46.5682 56.5681 46.5962 57.8733C46.5974 57.9285 46.5525 57.9733 46.4973 57.9733H41.1043L35.7113 57.9733C35.6561 57.9733 35.6112 57.9285 35.6124 57.8733C35.6404 56.5681 36.2157 55.3218 37.2202 54.3968C38.2503 53.4483 39.6475 52.9154 41.1043 52.9154C42.5611 52.9154 43.9583 53.4483 44.9884 54.3968Z" stroke="#001922" stroke-width="1.4"/>
<path id="Subtract" d="M46.5965 57.8733L45.8967 57.8883L46.5965 57.8733ZM45.0474 54.4517L44.5655 53.944L44.0306 54.4517L44.5654 54.9594L45.0474 54.4517ZM46.4979 57.9733L46.4958 57.2733L46.4979 58.6733L46.4979 57.9733ZM48.9901 57.9733L48.9901 58.6733H48.9901V57.9733ZM54.482 57.8733L53.7822 57.8883L53.7822 57.8883L54.482 57.8733ZM52.8743 54.3968L52.4001 54.9118L52.8743 54.3968ZM45.106 54.3968L44.6318 53.8819L44.6318 53.8819L45.106 54.3968ZM47.2963 57.8583C47.2647 56.3833 46.6266 54.9855 45.5293 53.944L44.5654 54.9594C45.4046 55.7559 45.8734 56.8041 45.8967 57.8883L47.2963 57.8583ZM46.4999 58.6733C46.9369 58.672 47.3061 58.3146 47.2963 57.8583L45.8967 57.8883C45.8892 57.5422 46.169 57.2743 46.4958 57.2733L46.4999 58.6733ZM46.4979 58.6733L48.9901 58.6733L48.9901 57.2733L46.4979 57.2733L46.4979 58.6733ZM48.9901 58.6733H54.3831V57.2733H48.9901V58.6733ZM54.3831 58.6733C54.8211 58.6733 55.1917 58.3155 55.1819 57.8583L53.7822 57.8883C53.7748 57.5415 54.0555 57.2733 54.3831 57.2733V58.6733ZM55.1819 57.8583C55.1496 56.3536 54.4863 54.9296 53.3484 53.8819L52.4001 54.9118C53.2712 55.7139 53.7585 56.7825 53.7822 57.8883L55.1819 57.8583ZM53.3484 53.8819C52.1834 52.8092 50.6148 52.2154 48.9901 52.2154V53.6154C50.2791 53.6154 51.5048 54.0874 52.4001 54.9118L53.3484 53.8819ZM48.9901 52.2154C47.3654 52.2154 45.7968 52.8092 44.6318 53.8819L45.5802 54.9118C46.4754 54.0874 47.7012 53.6154 48.9901 53.6154V52.2154ZM44.6318 53.8819C44.6095 53.9024 44.5874 53.9231 44.5655 53.944L45.5293 54.9594C45.5461 54.9434 45.5631 54.9275 45.5802 54.9118L44.6318 53.8819Z" fill="#001922"/>
<circle id="Ellipse 23" cx="41.0359" cy="49.0135" r="2.67851" stroke="#001922" stroke-width="1.4"/>
<circle id="Ellipse 24" cx="48.8406" cy="49.0135" r="2.67851" stroke="#001922" stroke-width="1.4"/>
<path id="Vector 18" d="M37.4375 24.4062H54.9062" stroke="#001922" stroke-width="1.4" stroke-linecap="round"/>
<path id="Vector 19" d="M37.4375 30.0312H54.9062" stroke="#001922" stroke-width="1.4" stroke-linecap="round"/>
<circle id="Ellipse 25" cx="28.5781" cy="31.0156" r="2.95312" stroke="#001922" stroke-width="1.4"/>
<path id="Vector 20" d="M28.5312 40.375L26.9486 36.3097C26.9412 36.2909 26.9311 36.2732 26.9184 36.2574L26.7475 36.0438C26.7096 35.9964 26.6521 35.9688 26.5914 35.9688H25.5779C25.5472 35.9688 25.5169 35.9758 25.4894 35.9893L21.3013 38.0531C21.2489 38.0789 21.2104 38.1263 21.1959 38.1829L19.1958 45.9986C19.1903 46.0202 19.1883 46.0425 19.1907 46.0647C19.2313 46.4508 19.4486 47.1911 20.0312 47.3125C20.6209 47.4353 21.0576 46.8842 21.2109 46.5784C21.2163 46.5677 21.2204 46.5567 21.2236 46.5452L23.1034 39.7653C23.1173 39.7154 23.1499 39.6728 23.1946 39.6465L24.0422 39.1466C24.1755 39.068 24.3438 39.1641 24.3438 39.3189V56.3125C24.3854 56.8229 24.75 57.8438 25.875 57.8438C27 57.8438 27.3646 56.8229 27.4062 56.3125V48.6875C27.4167 48.2812 27.6562 47.4688 28.5312 47.4688" stroke="#001922" stroke-width="1.4" stroke-linecap="round"/>
<path id="Vector 21" d="M28.5781 40.375L30.1608 36.3097C30.1681 36.2909 30.1783 36.2732 30.191 36.2574L30.3618 36.0438C30.3998 35.9964 30.4572 35.9688 30.518 35.9688H31.5471C31.5677 35.9688 31.5881 35.9719 31.6077 35.9781L32.5161 36.2665C32.5466 36.2762 32.5743 36.2931 32.597 36.3157L34.9815 38.7003C35.0473 38.766 35.1496 38.7778 35.2285 38.7287L38.3986 36.7581C38.4901 36.7013 38.6101 36.727 38.6702 36.8164L39.67 38.3034C39.7315 38.3948 39.7075 38.5187 39.6162 38.5805L35.0633 41.6648C34.9889 41.7152 34.8901 41.7098 34.8217 41.6517L33.0951 40.1859C32.9651 40.0756 32.7656 40.168 32.7656 40.3384V56.3125C32.724 56.8229 32.3594 57.8438 31.2344 57.8438C30.1094 57.8438 29.7448 56.8229 29.7031 56.3125V48.6875C29.6927 48.2812 29.4531 47.4688 28.5781 47.4688" stroke="#001922" stroke-width="1.4" stroke-linecap="round"/>
<path id="Vector 22" d="M45.2188 33.5312L39.5312 37.375" stroke="#001922" stroke-width="1.4" stroke-linecap="round"/>
<path id="Rectangle 3369" d="M19.625 44.2188V44.2188C18.5204 44.2188 17.625 43.3233 17.625 42.2188V20.9687C17.625 19.8642 18.5204 18.9688 19.625 18.9688H56.375C57.4796 18.9688 58.375 19.8642 58.375 20.9687V42.2188C58.375 43.3233 57.4796 44.2188 56.375 44.2188H32.75" stroke="#001922" stroke-width="1.4"/>
</g>
</g>
</svg>
