<svg width="24" height="34" viewBox="0 0 24 34" fill="none" xmlns="http://www.w3.org/2000/svg">
<g id="icon_hands">
<path id="Vector 23" d="M7.53125 5.34375V1.59375H17.7188V4.06399" stroke="#001922" stroke-width="1.4" stroke-linecap="round" stroke-linejoin="round"/>
<path id="Vector 25" d="M9.34375 26.8438V32.5625H19.8125V24.125C20.6979 22.8021 22.4562 19.7563 22.5312 18.7812" stroke="#001922" stroke-width="1.4" stroke-linecap="round" stroke-linejoin="round"/>
<path id="Vector 26" d="M22.7812 16.75C22.6875 15.6562 22.2875 13.65 21.1875 12.25C19.8125 10.5 18.0937 8.84375 17.5312 8.84375C16.9687 8.84375 16.4375 8.9375 15.875 9.28125C15.3125 9.625 11.9687 11.5312 11.3125 11.7812C10.6562 12.0312 10.75 13.25 12.0312 13.9062C13.3125 14.5625 13.7188 14.5 14.375 14.2812C14.9 14.1063 16.1979 13.4167 16.7812 13.0938L18.5 15.625C18.0625 17.2083 17.0563 20.5688 16.5312 21.3438C16.0062 22.1187 14.1667 23.4792 13.3125 24.0625" stroke="#001922" stroke-width="1.4" stroke-linecap="round" stroke-linejoin="round"/>
<path id="Vector 24" d="M17.8125 6.25L17.8125 8.90625" stroke="#001922" stroke-width="1.4" stroke-linecap="round" stroke-linejoin="round"/>
<path id="Vector 27" d="M11.8125 25.0938L8.15618 27.7188C7.74993 27.875 6.59368 28.5625 5.78112 27.3438C5.02139 26.2043 5.94793 25.1042 6.37501 24.9375L9.65619 22.5312" stroke="#001922" stroke-width="1.4" stroke-linecap="round" stroke-linejoin="round"/>
<path id="Vector 28" d="M8.04779 19.7705L4.76661 22.1768C4.33953 22.3434 3.413 23.4435 4.17272 24.583C4.68041 25.3445 5.32227 25.3618 5.83153 25.2295" stroke="#001922" stroke-width="1.4" stroke-linecap="round" stroke-linejoin="round"/>
<path id="Vector 29" d="M6.375 17.0938L3.8538 18.8635C3.426 19.0304 2.49789 20.1324 3.2589 21.2738C3.76746 22.0365 4.4104 22.0539 4.92053 21.9214" stroke="#001922" stroke-width="1.4" stroke-linecap="round" stroke-linejoin="round"/>
<path id="Vector 30" d="M4.28125 14.625L2.38505 15.9572C1.95725 16.1242 1.02914 17.2261 1.79015 18.3675C2.29871 19.1303 3.11487 19.195 3.625 19.0625" stroke="#001922" stroke-width="1.4" stroke-linecap="round" stroke-linejoin="round"/>
<rect id="Rectangle 3392" x="4.0769" y="7.13574" width="2.94248" height="5.39076" rx="1.47124" transform="rotate(-65.2976 4.0769 7.13574)" stroke="#001922" stroke-width="1.4"/>
<rect id="Rectangle 3393" x="2.75073" y="10.0186" width="3.173" height="5.39076" rx="1.5" transform="rotate(-65.2976 2.75073 10.0186)" stroke="#001922" stroke-width="1.4"/>
<rect id="Rectangle 3394" x="1.32373" y="13.084" width="3.3876" height="5.39076" rx="1.5" transform="rotate(-65.2976 1.32373 13.084)" stroke="#001922" stroke-width="1.4"/>
</g>
</svg>
