<svg width="40" height="40" viewBox="0 0 40 40" fill="none" xmlns="http://www.w3.org/2000/svg">
<g id="Frame">
<g id="picture iconka_78">
<path id="Vector" d="M23.3333 5V11.6667C23.3333 12.1087 23.5088 12.5326 23.8214 12.8452C24.134 13.1577 24.5579 13.3333 24.9999 13.3333H31.6666" stroke="#001922" stroke-width="1.4" stroke-linecap="round" stroke-linejoin="round"/>
<path id="Vector_2" d="M28.3333 35H11.6666C10.7825 35 9.93468 34.6488 9.30956 34.0237C8.68444 33.3986 8.33325 32.5507 8.33325 31.6667V8.33333C8.33325 7.44928 8.68444 6.60143 9.30956 5.97631C9.93468 5.35119 10.7825 5 11.6666 5H23.3333L31.6666 13.3333V31.6667C31.6666 32.5507 31.3154 33.3986 30.6903 34.0237C30.0652 34.6488 29.2173 35 28.3333 35Z" stroke="#001922" stroke-width="1.4" stroke-linecap="round" stroke-linejoin="round"/>
<path id="Vector_3" d="M15 28.333H25" stroke="#001922" stroke-width="1.4" stroke-linecap="round" stroke-linejoin="round"/>
<path id="Vector_4" d="M15 21.667H25" stroke="#001922" stroke-width="1.4" stroke-linecap="round" stroke-linejoin="round"/>
</g>
</g>
</svg>
