<svg width="76" height="76" viewBox="0 0 76 76" fill="none" xmlns="http://www.w3.org/2000/svg">
<circle cx="38" cy="38" r="38" fill="#E2F0E7"/>
<path d="M46 26.5V25C46 23.8954 45.1046 23 44 23H28C26.8954 23 26 23.8954 26 25V49C26 50.1046 26.8954 51 28 51H29.5" stroke="#001922"/>
<path d="M31 26.5H47.5C48.3284 26.5 49 27.1716 49 28V45.7146C49 46.0932 48.8568 46.4578 48.5992 46.7353L43.2271 52.5207C42.9432 52.8263 42.545 53 42.1279 53H31C30.1716 53 29.5 52.3284 29.5 51.5V28C29.5 27.1716 30.1716 26.5 31 26.5Z" stroke="#001922"/>
<path fill-rule="evenodd" clip-rule="evenodd" d="M46 31.5C46 31.7761 45.7761 32 45.5 32H33.5C33.2239 32 33 31.7761 33 31.5C33 31.2239 33.2239 31 33.5 31H45.5C45.7761 31 46 31.2239 46 31.5Z" fill="#001922"/>
<path fill-rule="evenodd" clip-rule="evenodd" d="M46 34.5C46 34.7761 45.7761 35 45.5 35H33.5C33.2239 35 33 34.7761 33 34.5C33 34.2239 33.2239 34 33.5 34H45.5C45.7761 34 46 34.2239 46 34.5Z" fill="#001922"/>
<path fill-rule="evenodd" clip-rule="evenodd" d="M46 37.5C46 37.7761 45.7761 38 45.5 38H33.5C33.2239 38 33 37.7761 33 37.5C33 37.2239 33.2239 37 33.5 37H45.5C45.7761 37 46 37.2239 46 37.5Z" fill="#001922"/>
<path fill-rule="evenodd" clip-rule="evenodd" d="M40 40.5C40 40.7761 39.7761 41 39.5 41H33.5C33.2239 41 33 40.7761 33 40.5C33 40.2239 33.2239 40 33.5 40H39.5C39.7761 40 40 40.2239 40 40.5Z" fill="#001922"/>
<path d="M42 53V48C42 46.8954 42.8954 46 44 46H49" stroke="#001922"/>
</svg>
