<svg width="76" height="76" viewBox="0 0 76 76" fill="none" xmlns="http://www.w3.org/2000/svg">
<circle cx="38" cy="38" r="38" fill="#FEF4DB"/>
<circle cx="30.5308" cy="26.8753" r="3.87528" fill="#FEF4DB" stroke="#001922" stroke-width="1.4" stroke-linecap="round"/>
<circle cx="37.9796" cy="36.7639" r="3.87528" fill="#FEF4DB" stroke="#001922" stroke-width="1.4" stroke-linecap="round"/>
<path d="M30.5975 44.9154C31.2122 44.5145 32.1231 44.5034 32.5017 44.5479L37.9468 44.5479H43.3919C43.7706 44.5034 44.6815 44.5145 45.2962 44.9154C46.0645 45.4165 46.4987 48.323 44.3606 50.7951C42.9666 52.4068 40.4567 53 37.9468 53C35.4368 52.9999 32.9267 52.4065 31.533 50.7951C29.3949 48.323 29.8291 45.4165 30.5975 44.9154Z" fill="#FEF4DB" stroke="#001922" stroke-width="1.4" stroke-linecap="round"/>
<path d="M31.1656 34.4922H25.3956C24.8364 34.4922 24.2358 34.3594 23.7327 34.6036C23.4881 34.7223 23.2168 34.9264 22.9473 35.2606C22.1121 36.2962 22.4128 38.6013 23.9161 40.3719C25.1188 41.7884 27.3793 42.7884 28.3593 43.1114" stroke="#001922" stroke-width="1.4" stroke-linecap="round"/>
<path d="M44.8344 34.4922H50.6044C51.1636 34.4922 51.7642 34.3594 52.2672 34.6036C52.5119 34.7223 52.7832 34.9264 53.0527 35.2606C53.8879 36.2962 53.5872 38.6013 52.0838 40.3719C50.8812 41.7884 48.6206 42.7884 47.6407 43.1114" stroke="#001922" stroke-width="1.4" stroke-linecap="round"/>
<circle cx="45.2969" cy="26.8753" r="3.87528" fill="#FEF4DB" stroke="#001922" stroke-width="1.4" stroke-linecap="round"/>
</svg>
