<svg width="76" height="76" viewBox="0 0 76 76" fill="none" xmlns="http://www.w3.org/2000/svg">
<circle cx="38" cy="38" r="38" fill="#E2F0E7"/>
<path d="M20.4753 54.6262C21.5131 54.1251 23.9538 53.1231 25.4139 53.1231C27.239 53.1231 34.8079 55.485 35.5594 55.7534C36.3109 56.0218 39.4244 55.8071 40.7127 55.485C42.001 55.163 56.4409 48.0235 57.5682 47.111C58.6955 46.1984 59.1249 45.1785 58.5344 43.7291C57.944 42.2798 56.6556 42.5482 55.421 42.9239C54.4333 43.2245 49.0689 45.2322 46.5101 46.1984" stroke="#001922" stroke-width="1.4" stroke-linecap="round"/>
<path d="M17.2005 44.6953C18.2205 44.3912 20.5072 43.6003 21.4949 42.8702C22.7296 41.9577 24.5547 39.8641 27.2387 40.5083C29.9227 41.1525 32.2309 43.085 34.2171 43.6218C36.2033 44.1586 43.7721 44.749 45.0605 45.5006C46.3488 46.2521 47.0411 47.5045 46.2548 48.6945C45.7583 49.446 44.8457 49.4192 42.9669 49.4729C40.3305 49.5482 36.9279 49.3118 34.9686 49.1508C33.0093 48.9898 32.4999 48.7618 31.4257 48.4932" stroke="#001922" stroke-width="1.4" stroke-linecap="round"/>
<path d="M33.3585 38.7906V36.1066V35.0408C33.3585 32.2793 35.5971 30.0408 38.3585 30.0408H41.5877C44.3491 30.0408 46.5877 32.2793 46.5877 35.0408V36.1066V41.1525" stroke="#001922" stroke-width="1.4" stroke-linecap="round"/>
<path d="M49.945 32.3221H52.0008C54.7622 32.3221 57.0008 34.5606 57.0008 37.3221V38.3879V39.4883" stroke="#001922" stroke-width="1.4" stroke-linecap="round"/>
<path d="M29.9997 32.3221H27.944C25.1825 32.3221 22.9439 34.5606 22.9439 37.3221V37.5022" stroke="#001922" stroke-width="1.4" stroke-linecap="round"/>
<circle cx="29.459" cy="25.6197" r="3.40113" fill="#E2F0E7" stroke="#001922" stroke-width="1.4" stroke-linecap="round"/>
<circle cx="39.9725" cy="23.5261" r="3.40113" fill="#E2F0E7" stroke="#001922" stroke-width="1.4" stroke-linecap="round"/>
<circle cx="50.486" cy="25.7826" r="3.40113" fill="#E2F0E7" stroke="#001922" stroke-width="1.4" stroke-linecap="round"/>
</svg>
