<svg xmlns="http://www.w3.org/2000/svg" aria-hidden="true" style="position:absolute;width:0;height:0;overflow:hidden">
  <defs>
    <symbol id="icon-arrow-right" viewBox="0 0 32 32">
      <path d="M25.957 15.667c0 .736-.597 1.333-1.333 1.333H6.711a1.333 1.333 0 0 1 0-2.666h17.913c.736 0 1.333.597 1.333 1.333z"/>
      <path d="M15.667 6.71a1.333 1.333 0 0 1 1.886 0l8.014 8.014a1.333 1.333 0 0 1 0 1.886l-8.014 8.014a1.333 1.333 0 1 1-1.886-1.886l7.071-7.071-7.071-7.071a1.333 1.333 0 0 1 0-1.886z"/>
    </symbol>
    <symbol id="arrow-up-right" viewBox="0 0 32 32">
      <path d="M22.943 8.391a1.333 1.333 0 0 1 0 1.886L10.276 22.944a1.333 1.333 0 1 1-1.886-1.886L21.057 8.391a1.333 1.333 0 0 1 1.886 0z"/>
      <path d="M9.333 9.333C9.333 8.597 9.93 8 10.666 8h11.333c.736 0 1.333.597 1.333 1.333v11.333a1.333 1.333 0 0 1-2.666 0v-10h-10a1.333 1.333 0 0 1-1.333-1.333z"/>
    </symbol>
    <symbol id="chevron-down-menu" viewBox="0 0 32 32">
      <path d="M11.057 13.724a1.333 1.333 0 0 1 1.886 0L16 16.781l3.057-3.057a1.333 1.333 0 1 1 1.886 1.886l-4 4a1.333 1.333 0 0 1-1.886 0l-4-4a1.333 1.333 0 0 1 0-1.886z"/>
    </symbol>
    <symbol id="chevron-left" viewBox="0 0 32 32">
      <path d="M12.293 16.957A.996.996 0 0 1 12 16.25v-.507c.003-.265.108-.518.293-.707l6.853-6.84a.668.668 0 0 1 .946 0l.947.947a.655.655 0 0 1 0 .934l-5.933 5.92 5.933 5.92a.668.668 0 0 1 0 .946l-.947.933a.668.668 0 0 1-.946 0l-6.853-6.84z"/>
    </symbol>
    <symbol id="chevron-right" viewBox="0 0 32 32">
      <path d="M21.04 16.957a.996.996 0 0 0 .293-.707v-.507a1.027 1.027 0 0 0-.293-.707l-6.853-6.84a.668.668 0 0 0-.946 0l-.947.947a.655.655 0 0 0 0 .934l5.933 5.92-5.933 5.92a.668.668 0 0 0 0 .946l.947.933a.668.668 0 0 0 .946 0l6.853-6.84z"/>
    </symbol>
    <symbol id="chevron-up" viewBox="0 0 32 32">
      <path d="M20.943 19.609a1.333 1.333 0 0 1-1.886 0L16 16.552l-3.057 3.057a1.333 1.333 0 1 1-1.886-1.886l4-4a1.333 1.333 0 0 1 1.886 0l4 4a1.333 1.333 0 0 1 0 1.886z"/>
    </symbol>
    <symbol id="facebook" viewBox="0 0 32 32">
      <path d="M17.2 17.4h2.333l.933-3.733h-3.267V11.8c0-.961 0-1.867 1.867-1.867h1.4V6.797c-.304-.04-1.453-.131-2.667-.131-2.534 0-4.333 1.547-4.333 4.387v2.613h-2.8v3.733h2.8v7.933h3.733v-7.933z"/>
    </symbol>
    <symbol id="instagram" viewBox="0 0 32 32">
      <path d="M12.572 8.933a3.638 3.638 0 0 0-3.639 3.639v6.857a3.638 3.638 0 0 0 3.639 3.638h6.857a3.635 3.635 0 0 0 3.638-3.638v-6.857a3.64 3.64 0 0 0-3.638-3.639h-6.857zm-3.893-.254a5.504 5.504 0 0 1 3.892-1.612h6.857a5.504 5.504 0 0 1 5.504 5.504v6.857a5.504 5.504 0 0 1-5.504 5.504h-6.857a5.504 5.504 0 0 1-5.504-5.504v-6.857c0-1.46.58-2.86 1.612-3.892zM16 13.505a2.494 2.494 0 1 0 0 4.988 2.494 2.494 0 0 0 0-4.988zm-3.084-.589a4.361 4.361 0 1 1 6.169 6.167 4.361 4.361 0 0 1-6.169-6.167z"/>
      <path d="M21.867 11.6a.933.933 0 1 1-1.867 0 .933.933 0 0 1 1.867 0z"/>
    </symbol>
    <symbol id="mail" viewBox="0 0 32 32">
      <path d="M9.333 10.267a.4.4 0 0 0-.4.4V22a.4.4 0 0 0 .4.4H24a.4.4 0 0 0 .4-.4V10.667a.4.4 0 0 0-.4-.4H9.333zm-2.266.4A2.267 2.267 0 0 1 9.334 8.4h14.667a2.267 2.267 0 0 1 2.267 2.267V22a2.267 2.267 0 0 1-2.267 2.267H9.334A2.267 2.267 0 0 1 7.067 22V10.667z"/>
      <path d="M7.29 10.394a.933.933 0 0 1 1.316-.104l7.808 6.662a.401.401 0 0 0 .506 0l7.808-6.662a.933.933 0 1 1 1.212 1.42l-7.822 6.674a2.268 2.268 0 0 1-2.902 0l-.009-.007-7.813-6.667a.933.933 0 0 1-.104-1.316z"/>
    </symbol>
    <symbol id="phone" viewBox="0 0 32 32">
      <path d="M17.638 17.638c-2.111 2.109-4.556 4.128-5.523 3.161-1.383-1.383-2.236-2.588-5.287-.136-3.049 2.451-.707 4.085.633 5.424 1.547 1.547 7.312.083 13.011-5.615 5.697-5.699 7.157-11.464 5.609-13.011-1.34-1.341-2.967-3.683-5.417-.633-2.452 3.049-1.248 3.903.137 5.287.963.967-1.055 3.412-3.164 5.523z"/>
    </symbol>
    <symbol id="telegram" viewBox="0 0 32 32">
      <path d="M26.792 9.527 23.343 23.76c-.26 1.005-.939 1.255-1.903.781l-5.256-3.389-2.536 2.134c-.281.246-.515.451-1.056.451l.378-4.683 9.741-7.702c.423-.33-.092-.513-.658-.183l-12.042 6.635-5.184-1.42c-1.128-.308-1.148-.987.235-1.46l20.277-6.835c.939-.308 1.76.183 1.454 1.438z"/>
    </symbol>
    <symbol id="youtube" viewBox="0 0 24 24">
      <path d="M19.67 8.14a2 2 0 0 0-1.42-1.43A48.44 48.44 0 0 0 12 6.38a48.44 48.44 0 0 0-6.25.33a2 2 0 0 0-1.42 1.43A21.27 21.27 0 0 0 4 12a21.42 21.42 0 0 0 .33 3.88a2 2 0 0 0 1.42 1.4a48.44 48.44 0 0 0 6.25.33a48.44 48.44 0 0 0 6.25-.33a2 2 0 0 0 1.42-1.4A21.42 21.42 0 0 0 20 12a21.27 21.27 0 0 0-.33-3.86Zm-9.31 6.25V9.63L14.55 12l-4.19 2.38Z"/>
    </symbol>
    <symbol id="burger" viewBox="0 0 32 32">
    <path d="M9.722 9.394c-0.239 0.069-0.357 0.27-0.357 0.607 0 0.35 0.117 0.537 0.382 0.611 0.272 0.075 14.204 0.078 14.474 0.002 0.306-0.085 0.395-0.223 0.395-0.613s-0.090-0.528-0.395-0.613c-0.252-0.070-14.257-0.065-14.5 0.005zM7.634 15.437c-0.177 0.098-0.269 0.286-0.271 0.555-0.003 0.284 0.106 0.503 0.29 0.587 0.106 0.049 2.099 0.064 8.354 0.064 8.932 0 8.432 0.017 8.573-0.292 0.081-0.179 0.081-0.517 0-0.696-0.141-0.309 0.362-0.292-8.588-0.29-6.729 0.002-8.254 0.014-8.358 0.072zM9.722 21.396c-0.239 0.069-0.357 0.27-0.357 0.607 0 0.35 0.117 0.537 0.382 0.611 0.272 0.075 14.204 0.078 14.474 0.002 0.306-0.084 0.395-0.223 0.395-0.613s-0.090-0.528-0.395-0.613c-0.252-0.070-14.257-0.065-14.5 0.006z"></path>
    </symbol>
    <symbol id="cross" viewBox="0 0 32 32">
    <path d="M10.363 10.085c-0.206 0.132-0.389 0.411-0.389 0.593 0 0.073 0.069 0.226 0.155 0.341s1.309 1.36 2.72 2.768l2.565 2.56-2.689 2.694c-1.814 1.817-2.702 2.742-2.726 2.842-0.084 0.344 0.299 0.785 0.683 0.785h0.223l5.416-5.412 2.681 2.675c1.789 1.785 2.729 2.688 2.827 2.712 0.217 0.053 0.409-0.013 0.605-0.21s0.263-0.389 0.21-0.605c-0.024-0.098-0.926-1.038-2.712-2.828l-2.676-2.681 2.648-2.653c1.456-1.459 2.674-2.706 2.706-2.77 0.115-0.227 0.070-0.393-0.174-0.637-0.204-0.203-0.263-0.233-0.466-0.233h-0.232l-5.39 5.386-2.56-2.565c-1.407-1.411-2.653-2.636-2.768-2.72-0.245-0.182-0.421-0.194-0.657-0.043z"></path>
    </symbol>
    <symbol id="icon-report" viewBox="0 0 26 32" fill="none">
    <path d="M16.333 1V7.66667C16.333 8.10869 16.5086 8.53262 16.8212 8.84518C17.1337 9.15774 17.5576 9.33333 17.9997 9.33333H24.6663" stroke="#001922" stroke-width="1.4" stroke-linecap="round" stroke-linejoin="round"/>
    <path d="M21.333 31H4.66634C3.78229 31 2.93444 30.6488 2.30932 30.0237C1.6842 29.3986 1.33301 28.5507 1.33301 27.6667V4.33333C1.33301 3.44928 1.6842 2.60143 2.30932 1.97631C2.93444 1.35119 3.78229 1 4.66634 1H16.333L24.6663 9.33333V27.6667C24.6663 28.5507 24.3152 29.3986 23.69 30.0237C23.0649 30.6488 22.2171 31 21.333 31Z" stroke="#001922" stroke-width="1.4" stroke-linecap="round" stroke-linejoin="round"/>
    <path d="M8 24.334H18" stroke="#001922" stroke-width="1.4" stroke-linecap="round" stroke-linejoin="round"/>
    <path d="M8 17.666H18" stroke="#001922" stroke-width="1.4" stroke-linecap="round" stroke-linejoin="round"/>
    </symbol>
    <symbol id="icon-document" viewBox="0 0 25 32">
    <path fill="none" stroke="#001922" style="stroke: var(--color1, #001922)" stroke-linejoin="miter" stroke-linecap="butt" stroke-miterlimit="4" stroke-width="1" d="M21 4.5v-1.5c0-1.105-0.895-2-2-2v0h-16c-1.105 0-2 0.895-2 2v0 24c0 1.105 0.895 2 2 2v0h1.5"></path>
    <path fill="none" stroke="#001922" style="stroke: var(--color1, #001922)" stroke-linejoin="miter" stroke-linecap="butt" stroke-miterlimit="4" stroke-width="1" d="M6 4.5h16.5c0.828 0 1.5 0.672 1.5 1.5v0 17.715c0 0 0 0 0 0 0 0.394-0.152 0.753-0.401 1.021l0.001-0.001-5.373 5.786c-0.275 0.295-0.665 0.479-1.099 0.479-0 0-0.001 0-0.001 0h-11.127c-0.828 0-1.5-0.672-1.5-1.5v0-23.5c0-0.828 0.672-1.5 1.5-1.5v0z"></path>
    <path d="M21 9.5c0 0.276-0.224 0.5-0.5 0.5v0h-12c-0.276 0-0.5-0.224-0.5-0.5s0.224-0.5 0.5-0.5v0h12c0.276 0 0.5 0.224 0.5 0.5v0zM21 12.5c0 0.276-0.224 0.5-0.5 0.5v0h-12c-0.276 0-0.5-0.224-0.5-0.5s0.224-0.5 0.5-0.5v0h12c0.276 0 0.5 0.224 0.5 0.5v0zM21 15.5c0 0.276-0.224 0.5-0.5 0.5v0h-12c-0.276 0-0.5-0.224-0.5-0.5s0.224-0.5 0.5-0.5v0h12c0.276 0 0.5 0.224 0.5 0.5v0zM15 18.5c0 0.276-0.224 0.5-0.5 0.5v0h-6c-0.276 0-0.5-0.224-0.5-0.5s0.224-0.5 0.5-0.5v0h6c0.276 0 0.5 0.224 0.5 0.5v0z"></path>
    <path fill="none" stroke="#001922" style="stroke: var(--color1, #001922)" stroke-linejoin="miter" stroke-linecap="butt" stroke-miterlimit="4" stroke-width="1" d="M17 31v-5c0-1.105 0.895-2 2-2v0h5"></path>
    </symbol>
  </defs>
</svg>
